<?xml version="1.0"?>
    
<!--********* Copyright (c) 2024 Pareto Softare, LLC DBA Simplemaps.com ***************************************
************* Free for Commercial Use, full terms at  https://simplemaps.com/resources/svg-license ************
************* Attribution is appreciated! https://simplemaps.com *******************************************-->

<svg baseprofile="tiny" fill="#6f9c76" height="793" stroke="#ffffff" stroke-linecap="round" stroke-linejoin="round" stroke-width=".5" version="1.2" viewbox="0 0 1000 793" width="1000" xmlns="http://www.w3.org/2000/svg">
 <g id="features">
  <path d="M79.1 496.5l5.1-0.7 11 0.3 11.8 0 10.2 0.6 4.9-2.9 4.1-5.3 2.2-2.6 1.1-1.2 1.2 1.5 0.9 1 0.3 0.3 3.1 6.7 3.7 7.2 4.1 7.3 3.5 7.6 1.4 11.6 0 6.3 0 4.8 2.2 3.8 2.4 3.1 2.1 2.9 2.6 4.4 0.5 4.1-1.2 10.4-2.6 8.5-3.4 4.4-2.1 2.5-1.1 3.5 0 3.1 0.6 3.5 1.2 1.6 1.9 1.8 0 1.9-0.7 2.5-0.2 2.9 0.8 2.1-1.2 2.1-29.7 42.8-3.9-2.9-3.1-0.5-0.9-0.1-4.5 0.2-4.8-0.5-2.8-1.3-7.3-3.4-2.5-6.4 0.2-8.4-1.7-10.6-5.7-10.9-13.1-18.6 29.2-5.2 9.1-4.2 2.1-4.1-1.5-3.4-8.6-2.3-10.6-1.3-25.8 1.6-4.3-18.5-1.9-14.2 0.1-1 1.2-9.2 5.1 1.6 5.1-3.1 4.6-5.9 3.4-6.4 2.5-7.9 0.1-6.4-0.4-1.1z" id="MK312" name="Struga">
  </path>
  <path d="M79.1 496.5l-1.8-4.7-4.2-6-2.7-1.8-5.9-1-2.5-2.1-0.7-2.6-0.7-7.7-1.2-3.6-0.7-1.3 5.4-4.8 5.2-6.1 8.2-4 7.7-4.9 4.1-7 8.5 0 6.3 1 4.1 6 2.2 8.9 3.7 3.4 4.1 0 2.6 8.4 0 7.4 0 6.4 5.5 1 2.1 4.5-2.2 2.6-4.1 5.3-4.9 2.9-10.2-0.6-11.8 0-11-0.3-5.1 0.7z" id="MK313" name="Centar župa">
  </path>
  <path d="M58.7 465.7l-3.8-7.4-2.7-2.8-4-1.8-2.5-7.1 1.1-12.7-1.3-6.8 17.2-3.8 5.2-2.1 4.7-2.9 3-3.1 1.9-4.9 0-1 6.7 2.9 7 7.9 8.8 6.5 11.9 2.4 4.1 0 7.4 6.5 4 6.4 4.9 5.4 7.7 3 4.8 2.5 1.1 5.4 0.5 2.5-1.7-0.7-1.7-0.9-2.8 0.6-2.4 3.2-1.4 4.1-0.7 5-1.2 5.7-1 3.2-2.8 5.3-1.2-1.5-1.1 1.2-2.1-4.5-5.5-1 0-6.4 0-7.4-2.6-8.4-4.1 0-3.7-3.4-2.2-8.9-4.1-6-6.3-1-8.5 0-4.1 7-7.7 4.9-8.2 4-5.2 6.1-5.4 4.8z" id="MK303" name="Debar">
  </path>
  <path d="M77.5 409.3l0-3.2-7.5-22-1.8-10.1-2.8-34.3 1-5 2.9-6.3 3.4-4.7 8.3-8.1 2.3-4.1-0.3-3.2 10.5 4.6 7.3 2.8 3.6 4.2 8 3.8 5.5 4.8 7.3 1.3 7.4 0.6 4-3.2 3.3-4.4 3.3-4.1 7.4 0 6.6 0.9 6.9 1.3 5.4 0.3 2.2 2.5 4.5 8 0.7 9.2 3.3 3.8 4.3-2.5 4.2 0 5.7 0 3.6 0.3 0 2.5-3.1 2.9-1.9 2.2 2.6 5.1 4.5 7.3 5.2 6 0.8 4.2-5.7 0.6-1.8 1.5-4.8 0-3.3 0-4 2.6-6.2 7.3-2.8 2.2-8.1 0.3-3.8 4.8 0.3 3.1 2.8 2.2 4.8-1.2 1.4 0.2 0.6 3 2.3 12.9 0 8.9 0 5 0 5.9-4.5 5-0.4 4.4 0 5.9-4.4 2.5-4.2 8-3.8 3.8-4.5 1.6-5.7-1-3.9-1.5-0.5-2.5-1.1-5.4-4.8-2.5-7.7-3-4.9-5.4-4-6.4-7.4-6.5-4.1 0-11.9-2.4-8.8-6.5-7-7.9-6.7-2.9z" id="MK607" name="Mavrovo and Rostusa">
  </path>
  <path d="M83 308.3l-0.6-6.7-2.8-12 0.1-2.6 0.3-7.9 9-5.5 8.2 8.7 4.3 2.4 5.8-0.4 2.7-2.2 2.3-4.4 2-1.8 3.8-1.3 1.3 0.8 6.7 9.5 3.4 2.5 7.7-2.6 3.7-4.2 0.2-0.3 0.1-0.1 4.5 4.6 7.4 3.2 1.5 0.8 4.5 0.3 5 0 4.7 0.6 2.4 2.9 2.1 6 2.2 3.2 6.1 3.5 6.4 1 4.3-3.9 9-1.2 11.3 2.8 6.7-2.2 3.6-4.1-0.8-3.2-0.9-4.4 1.7-2.6 1.4-1.6 2.5-1.1 2.7 1.1 7.6 4.5 7.6 0.9 5.4-0.3 2.1 0 1 3.8-0.5 3.5 2.8 3.5 6.4 5.1 3.8 5.1 3.1 4.1 1.6 3.1-1.9 0.4-7.4 0.6-1.9 4.5 0 7 0 4.7-0.9 1.9-2.9 0-1.9 1.6-0.5 2.6 1.7 4.7 3.3 2.6 0.5 4.1 0 3.8 1 2.5 1.6 2.3 1.2 3.1 0.7 8.3-1.8 6.8-0.1-0.2-2.1 0-3.1 2.6-3.8 0.6-4.5 1.6-5 0.6-3.3 2.6-1.9 1.2-0.3 2-3.2-2.9-2.6-3.2-3.3-4.4-5.3-3.8-5.4-2.9-7.4-2.2-3.8 0.4-0.8-4.2-5.2-6-4.5-7.3-2.6-5.1 1.9-2.2 3.1-2.9 0-2.5-3.6-0.3-5.7 0-4.2 0-4.3 2.5-3.3-3.8-0.7-9.2-4.5-8-2.2-2.5-5.4-0.3-6.9-1.3-6.6-0.9-7.4 0-3.3 4.1-3.3 4.4-4 3.2-7.4-0.6-7.3-1.3-5.5-4.8-8-3.8-3.6-4.2-7.3-2.8-10.5-4.6z" id="MK604" name="Gostivar">
  </path>
  <path d="M69.7 587.5l-4.4-12-1.7-6.9 25.8-1.6 10.6 1.3 8.6 2.3 1.5 3.4-2.1 4.1-9.1 4.2-29.2 5.2z" id="MK301" name="Vevčani">
  </path>
  <path d="M184.5 722l-6.9 1.7-11.8 10-6.3 2.5-8.9-2-3.7-3.1-4.7-4.1-5.1-10.8-6.9-27-6.8-30.7 32.1-45.5 6.2-7.5 2.2-4.8 4-1.5 2.1-1 0-3.8-0.5-5.6 1.5-3.2 2.8-5.3 4.5-2.9 0.7-3.7 2.4-2.3 3.6-0.6 8.9 0.3 6-2.5 3.8-0.3 5.9 0.3 4.5 1.3 8.3 3.1 9.2 6.3 6.9 1.3 9.9 1.2 5.2-1.3 2.3 3.9 0.5 2.3-3.2 6-4.4 4.9-7.5 5.7-7.3 4-6 3.7-8.2 4.9-4.1 4-3.7 4.8-3.4 4.3-2.6 7.4-1.7 10-0.2 6.3 0 4.9-0.5 3.7-3 1.4-1.7 1.7 0 2.6 0.2 4.3 1.9 2.3 2 4.5 0 4.3-0.6 5.1-2.9 3.2-3.6 0.3-5.4 0.5-4.1 3.2-1.7 5.4-1.3 6.3 0 5.4 0 4.3 0.5 2.8 0.6 3 0 0.1z" id="MK310" name="Ohrid">
  </path>
  <path d="M123.4 658.5l-3.6-7.6 29.7-42.8 1.2-2.1-0.8-2.1 0.2-2.9 0.7-2.5 0-1.9-1.9-1.8-1.2-1.6-0.6-3.5 0-3.1 1.1-3.5 2.1-2.5 3.4-4.4 2.6-8.5 1.2-10.4-0.5-4.1-2.6-4.4-2.1-2.9-2.4-3.1-2.2-3.8 0-4.8 0-6.3-1.4-11.6-3.5-7.6-4.1-7.3-3.7-7.2-3.1-6.7-0.3-0.3 3.1-2.8 11.4 0.6 15.9-0.3 9-0.3 10.8 0.9 7.6 1.9 11.9 0.3 1.6 0 2.4 6.7 3.8 7.8 1.2 6.1-0.7 5.3 2.6 5.4 6.6 2.2 2.9 3.2 3 6.6 2 2.9-0.5 0.9 0 4.8 0.9 3.8 2.6 2.8 3.4 2.9 3.5 1.7 3.4 2 1.5 4.3 1.9 5.2 2.4 3.1 4.1 2.3 0 5.5 2.6 5.7 1.1 1.8-5.2 1.3-9.9-1.2-6.9-1.3-9.2-6.3-8.3-3.1-4.5-1.3-5.9-0.3-3.8 0.3-6 2.5-8.9-0.3-3.6 0.6-2.4 2.3-0.7 3.7-4.5 2.9-2.8 5.3-1.5 3.2 0.5 5.6 0 3.8-2.1 1-4 1.5-2.2 4.8-6.2 7.5-32.1 45.5z" id="MK304" name="Debarca">
  </path>
  <path d="M184.5 722l0-0.1-0.6-3-0.5-2.8 0-4.3 0-5.4 1.3-6.3 1.7-5.4 4.1-3.2 5.4-0.5 3.6-0.3 2.9-3.2 0.6-5.1 0-4.3-2-4.5-1.9-2.3-0.2-4.3 0-2.6 1.7-1.7 3-1.4 0.5-3.7 0-4.9 0.2-6.3 1.7-10 2.6-7.4 3.4-4.3 3.7-4.8 4.1-4 8.2-4.9 6-3.7 7.3-4 7.5-5.7 4.4-4.9 3.2-6 0.4-0.9 1.1 4 2.4 2.9 3.2 0 3.4 0.3 1.5 3.7 1.7 9.7 0 6 2 7.5 3.6 5.7 1.1 1.6-0.1 0 0 2.5 3.2 3.6 0.8 4.3-0.8 5.3-3.5 6.1-3.5 3.2-3 2.2-1.3 4.6 0 5.4 2.4 2.8 6.2 1.1 1.6 1.3 0 4.2 0.8 4 1.8 3.5 3 3.1 2.3 2.9 0.9 2.8 0 3.7 2.6 2.3 3.8 0 6.1-0.3 4.9 0 4.8 2.6 3.8 5.4 1.6 3.1 0 3.7 3.6 1.2 3.6 0 5 0.3 1.9 1.4 1.6 6-0.5 6 3.7 2.2 0.8 2.3-0.4 3.1-1.3 2.9-0.8 5.1-1.3 5.4-0.5 0.7-1 3.2-0.1 0.1-13-2.8-9.2-0.5-25.1 7.6-52.1 2.1-0.1-12.4-2.9-8.8-6-5.8-17.6-5.2-18.7-2.8-0.3 0.1z" id="MK509" name="Resen">
  </path>
  <path d="M879.1 527.7l0-0.1-0.4-0.8-0.6-0.9 0-2.5-0.3-8.9 0.3-7.2-0.3-4.9-1.4-1.2-1-1.1 0-0.9 0-0.2 0.3-1.1 1.7-1.4 1.4-0.9 1.3-1.3 0.7-2.5 0.2-3.1 0-5.4 0-4.3-0.2-4 1.7-2.3 3-2.2 1.9-1.4 3.9-3.4 3-3.8 1.8-3.1 2-2.7 2.2-1.8 1-3.8-0.1-5.7-0.3-2.2 2.3 0 9.1 0 12.5-0.9 3-1.3 3.2-0.7 0.2 0 0.9 33.1 0.5 2.3 2 4.8 0.5 2.7-0.9 2.2-4.1 5.1-1.2 2.9 0.8 10.1 1.8 9.9-1.3 8.8-8.5 6.7-32.2-2.5-10.4 1.9z" id="MK408" name="Novo Selo">
  </path>
  <path d="M859.7 551.2l-0.4 1.7-1.4 37.3-3.4 18.2-4.1 9.5-3.8 2.8-4.6-2.3-6.3-5.7-2.8-3.7-1.6-3.7-1.6-2.2 2.2-3.7-0.4-0.1 0.1-2.5 0.1-3.5-0.2-3.9-0.8-1.2-1.7 0-3.4-2.4-2.6-1.9-2.6-1-2.8-0.2-2.1 0-1.3 0.8-1.6 0.5-1.8 0-2.7 0-2-0.4-1.9-3.1-1.5-1.8-2.5-1.2-2-2.2-0.7-2.6 0.7 0.1 2.7-1.1 3.1-2 3-4.3 2.7-4.1 1.6-2.4 7.4 0.3 5.4-0.1 2-1.1 1-2.7 0-2.8 1.9-3.1 2.5-1.5 3.5 0.3 4.3 1.2 1.9 0 2.6-0.5 2.5-0.1 3.2 0 2.7 0.6 2.7 0.2 4.1 1.4 0.5 0.2 0.2 0z" id="MK406" name="Dojran">
  </path>
  <path d="M866.9 534.5l-3.9 3.5-3.3 13.2-0.2 0-0.5-0.2-4.1-1.4-2.7-0.2-2.7-0.6-3.2 0-2.5 0.1-2.6 0.5-1.9 0-4.3-1.2-3.5-0.3-2.5 1.5-1.9 3.1 0 2.8-1 2.7-2 1.1-5.4 0.1-7.4-0.3-1.6 2.4-2.7 4.1-3 4.3-3.1 2-2.7 1.1-0.7-0.1-1.7-0.1-3.4-2.2-0.6-1.6-0.9-1.5-6.2 0.2-1.6 2.7-0.1 3.1-0.6 5.6-0.3 2.6-2.3 1.7-2.2 1.6-1.6 1.3-0.4 0-0.8 0-1.8-2.9-1.6-2.9 0-2.2-1.2-1.9-2.8-1-0.2-3.8 0.2-4.8-2.2-6.9-1.9-4.1 0.2-9.3 0-4.2-0.8-3.3-1.3-0.7-2.6 0-3.7-1.5-2.5-2.4-3.2-5-5.7-6.6-2.8-4.6-2.3-1.9-3.8-0.5-4.5-2.2-3.4-3.8-2.8-0.5-3.1-0.2-4.7-0.3-0.3-0.3-1.7-2-1.9-5.7-0.6-3.7 0.2-4.7 0.6-3.2 1.1-2.7 0.5 0.8 1.6 0 0.4-2.3 1.4-2.4 8.6-3.4 6.5-1.6 9.1-2.2 6.4-0.2 4.8 0.6 1.8 0.6-0.2 1.2 2.4 2.7 3 4.3 3.7 4 3.4 3.2 4.4 2 4.2 0 2.7-0.2 3.4 0.4 1.8 1.6 1.7 2.7 0 2.2-1.4 3.2-2.6 3.3-1.4 3.6 0 2.1 1.9 3.6 3 4.7 1.5 3.3 0.4 4.7 0.1 2.3 2.5 0.2 4.6 0 3.5-0.2 2.6-0.9 1.5-0.7 2.3 0.2 2.7 2.3 3.7 3.8 0 3.1 2.7 0.9 4 0 3.3 0 2.3-0.9 1.4-2.2 1.8-1.1 2.4 0.2 1.2 1.8 1.8 0 1-0.9 2.4-2.9 2-5 1.9-4.2 2.5-1.6 2.3-0.7 4.3 1.1 5.9 3.2 6.8 3.6 5.6 3.3 1.1 1z" id="MK403" name="Valandovo">
  </path>
  <path d="M879.1 527.7l-5.6 1-6.6 5.8-1.1-1-5.6-3.3-6.8-3.6-5.9-3.2-4.3-1.1-2.3 0.7-2.5 1.6-1.9 4.2-2 5-2.4 2.9-1 0.9-1.8 0-1.2-1.8-2.4-0.2-1.8 1.1-1.4 2.2-2.3 0.9-3.3 0-4 0-2.7-0.9 0-3.1-3.7-3.8-2.7-2.3-2.3-0.2-1.5 0.7-2.6 0.9-3.5 0.2-4.6 0-2.5-0.2-0.1-2.3-0.4-4.7-1.5-3.3-3-4.7-1.9-3.6 0-2.1 1.4-3.6 2.6-3.3 1.4-3.2 0-2.2-1.7-2.7-1.8-1.6-3.4-0.4-2.7 0.2-4.2 0-4.4-2-3.4-3.2-3.7-4-3-4.3-2.4-2.7 0.2-1.2 0-0.8 2.4-2.5 5-2.4 4.2-1.4 2.6 0 1.8 1.4 4.2 0.6 1.7-1.5 0.4-3.2 0.5 0.5 1.4-1.4 2.3-2.9 2.1-2.7 1-2.7 1.2-1.8 3.5-0.5 4 2.3 2.4 0 2.8 2.2 4.3 2.1 1.5 2 3.5 4.3 2.2 3.1 3.7 0 6.6 0.2 3.2-1.3 2.3-0.9 3.6-0.7 4.3-3.6 2.2-1.1 1.6 1.3 2.8 3.2 0.8 2.7 1.2 3.6 0.6 2.9-0.1 2.5-1.6 3.3-1.1 2.5 0 2.7 1.3 0.5 2 0.6 1.5 1.6 1.9 0 1-0.7 1.2-1.3 3-0.2 2.2-0.3 1.4 1.8 0.6 2.3 0.5 3.8 1.1 1.6 2.2 2 2.8 1.6 3.1 0.4 1.6-0.4 2.1-1.2 1.6-0.9 2.9-0.2 1.5 0 0 0.9 1 1.1 1.4 1.2 0.3 4.9-0.3 7.2 0.3 8.9 0 2.5 0.6 0.9 0.4 0.8 0 0.1z" id="MK410" name="Strumitsa">
  </path>
  <path d="M829.7 603.1l-0.4-0.5-4.1-1-5.4 1.5-1.2 3.4 0.3 4.2-0.8 3.9-6.1 7.8-6.1 5.1-1.2 0.5-0.1-0.1-1.1-2.5-5.3-3.6-5.8-3-3.3-1.8-3.8-0.4-2.6 0-1.7-0.2-0.8-0.9 0.2-2.1 0.1-2.4 0.7-2.6 1.2-3.5 0.6-3.8 0-2.3-0.4-2.4-1.8-2.7-1.7-2.8-2.2-2.4-1.3-2.4 0.4 0 1.6-1.3 2.2-1.6 2.3-1.7 0.3-2.6 0.6-5.6 0.1-3.1 1.6-2.7 6.2-0.2 0.9 1.5 0.6 1.6 3.4 2.2 1.7 0.1 0.7 2.6 2 2.2 2.5 1.2 1.5 1.8 1.9 3.1 2 0.4 2.7 0 1.8 0 1.6-0.5 1.3-0.8 2.1 0 2.8 0.2 2.6 1 2.6 1.9 3.4 2.4 1.7 0 0.8 1.2 0.2 3.9-0.1 3.5-0.1 2.5 0.4 0.1-2.2 3.7z" id="MK401" name="Bogdanci">
  </path>
  <path d="M804.7 628l-5.5 2.1-7.8 0.5-11.6-1.7-5.6 0-6.8 2.1-4.9 1.3-5.7 0.6-10.5-0.5-4.1-1.5-7.5-4.9-3.2-1.6-4.4-0.3-9 1.6-6.7 0.2-3 1.9-2.2-0.2-0.7-1.7-0.5-6.2-1-1.8-3.2-0.9-10.8-1.4-13.4-4.3-4.1-0.5 0-0.1-1.9-5.3 0.7-2 0.4-3.1 1.2-2.6 2.1-1 6-1 5.1 0.2 2.4-0.2 1-0.6 0-2.4-0.7-2.2-0.9-2.2-0.6-4.1-1.1-2.6-1-3.4 0.3-3 1.2-0.2 1.3-0.2 1.8 0 4.2-2 2.9-2.6 3.5-3 1.5-0.4 2-1 0.1-2.7-0.9-1.2-1.8 0-1.9-1-0.5-2.8 0-2.6 0-6-0.2-2.8-0.8-1.6-1.2-2.4 0-0.3 0.2-1.7 2-2.7 2.6-3.2 1.8-1.6 3-0.2 4.2-0.2 4.6 0.4 3 0 1.8-0.6 0.4-2 0.2-4-0.3-3.6-1.5-4.8-1-1.6-1.8-2.2-0.3-2.3 0.1-2.6 0.3-1.2 0.3 0.3 4.7 0.3 3.1 0.2 2.8 0.5 3.4 3.8 4.5 2.2 3.8 0.5 2.3 1.9 2.8 4.6 5.7 6.6 3.2 5 2.5 2.4 3.7 1.5 2.6 0 1.3 0.7 0.8 3.3 0 4.2-0.2 9.3 1.9 4.1 2.2 6.9-0.2 4.8 0.2 3.8 2.8 1 1.2 1.9 0 2.2 1.6 2.9 1.8 2.9 0.8 0 1.3 2.4 2.2 2.4 1.7 2.8 1.8 2.7 0.4 2.4 0 2.3-0.6 3.8-1.2 3.5-0.7 2.6-0.1 2.4-0.2 2.1 0.8 0.9 1.7 0.2 2.6 0 3.8 0.4 3.3 1.8 5.8 3 5.3 3.6 1.1 2.5 0.1 0.1z" id="MK405" name="Gevgelija">
  </path>
  <path d="M672.5 610.8l-2.8-0.4-8 0.7-8.1 3.8-12.7 11.6-7.5 2.7-2.6-1-11.8-6.4-0.8-1.3-0.6-2.4-1.1-2.2-2.6-1-1.5 0.9-3.6 4.1-1.7 1.3-22.7 6.7-10.7 5.8-3.3 2.4 0-0.1-0.1-0.2-0.7-5.3 0-4.1-0.9-2.4-2-0.2-2 0-3 0-2.7-0.8-2-1.4-0.7-3.6-0.5-6.8 0.5-9.2-0.1-5.9-2.7-4.6-1.8-0.9-2.2-4.1 0.2-5.6 0.5-4.3 2.2-4.4 1.8-3.1 0.7-3.9 1.3-1.4-0.7-2-1.4 0-4.6-0.4-2.4 0.2-3 0.2-3.7 0-3.1-0.9-1.6-3.4-1.8-6.3-0.9-4.1-0.2-7 0.5-5.1 0-2.7 0.8-3.3 0.9-1.5 1.1-2.4 0.2-3.4 0-3.4-0.8-4.1-2-3.4-1.9-2.5-0.7-4.1 0.3-4.9 0-4.3 1.3-2.7 0-5.8-0.7-2.4-1.8 0.9-0.9 1.7-0.9 2.5-1 1.6-3.4 0-1.8-1.2-3.8-4.1-2.2-3.4 0-3.7 0-0.6 3.1-3.7 2-3.9 2.2-2.1 4.1 0.7 1.7 1.9 0.3 0.5 2 3.2 3.6 5.1 3.2 3.4 6.3 0.7 2.7 0 2.4-0.7 5.4 0 5.5-0.3 2.5-1.9 0.8-6.1 1.6-1.7 3.1 0 2.3 1 3 1.4 2.9 2.5 2 0.7 1.8-0.7 0.1-3.7 1.5-1.9 2.5-1.5 3.7-2.4 0.9-7.7-0.4-6.3 1.1-3.9 1.1-1.2 2.5 2.1 3.8 0 3.2-0.2 3.6-2.2 2.9-0.5 3.6 1.5 1.8 2.7-0.1 9.7 0.9 5.5 1.1 5.1 1.6 7.3-0.2 8 0.2 8.7 1.6 7.3 3.1 5.3 0.7 3.9-0.1 2.9 0.1 2.1 3.5 2 2 1.5-0.6 0 3.5 2.9 5.9 5.8 3.5 3.3 1.8 1.6 1.4 0.5 1.2 1.3 1.4 1.6 2 1.1 2.2 0.3 1.6 2.7 1.8 5 5.1 3.5 5.8 3.7 6.4 0.9 5.8-0.9 8.9-5 10-7 2.2-0.8 0 0.3 1.2 2.4 0.8 1.6 0.2 2.8 0 6 0 2.6 0.5 2.8 1.9 1 1.8 0 0.9 1.2-0.1 2.7-2 1-1.5 0.4-3.5 3-2.9 2.6-4.2 2-1.8 0-1.3 0.2-1.2 0.2-0.3 3 1 3.4 1.1 2.6 0.6 4.1 0.9 2.2 0.7 2.2 0 2.4-1 0.6-2.4 0.2-5.1-0.2-6 1-2.1 1-1.2 2.6-0.4 3.1-0.7 2 1.9 5.3 0 0.1z" id="MK104" name="Kavadartsi">
  </path>
  <path d="M421.6 732.8l0.1-0.1 1.8-4.9 0.1-0.5 0-4.3-1.3-5.6-0.2-4.3-1.1-3.9-3.8-5.7-4.7-5.1-4.5-5.4-1.5-3.4-3.4-1.1-4.3-0.8-0.2-3.7-0.2-6.5-0.7-4.3-2.6-2.8-1.6-1.7-1.1-2-0.7-4.8 0.3-3.4 1.2-2 0.9-2.8 0-4.8 0.7-2.1 0.8-2.2 3.2-4.2 5.5-4 3.7 0 5.3 2.3 4.8 1.7 8.4 1.1 7.6 1.1 4.1-2.5 5.5-7.1 5.2-6.2 4.3-6 1.4-7.1 0.2-0.1 3-2.7 2.6-0.3 1.5 1.7 1.5 3.4 1.9 3.1 5.5 4 4.8 1.7 6.4 0.9 7.9 1.1 3.6 0.6 7.7 3.6 4 2 4.9 1.2 3.7 0.5 3.2 2.3 3.6 4.8 3 2 4.9 1.4 4.7 0 3.4-0.3 1.5-2.8 1.1-0.3 1.1 0.6 1.3 2.8 2.9 3.1 3.9 3.4 3.8 0.9 7.6 3.5 0.3 0.1-0.1 1.6-0.7 3.5-4.8 7.3-12.6 12.2-4.8 8.8-0.1 0 0 0.1-13.3 9.3-3.6 4.4-0.6 3.9-0.1 5.1-1.2 5.3-4.5 4.6-3 0.7-7.1 1.5-18.4-4.1-10 4.6-0.7 1.8-0.8 6.1-1.4 2.6-1.7 0.6-5.1-0.3-2.1 0.4-3.5 2.8-8.3 8.3-3.1 2-9.9-1.9-15.6-14.1-1.4-0.2z" id="MK507" name="Novaci">
  </path>
  <path d="M570.4 636.1l-5.8 4.4-2.8 3.2-1.4 4.4-0.3 7.8-0.3-0.1-7.6-3.5-3.8-0.9-3.9-3.4-2.9-3.1-1.3-2.8-1.1-0.6-1.1 0.3-1.5 2.8-3.4 0.3-4.7 0-4.9-1.4-3-2-3.6-4.8-3.2-2.3-3.7-0.5-4.9-1.2-4-2-7.7-3.6-3.6-0.6-7.9-1.1-6.4-0.9-4.8-1.7-5.5-4-1.9-3.1-1.5-3.4-1.5-1.7-2.6 0.3-3 2.7-1.3-1.5-4.2-1.4-5.4-1-4.9-1.8-6.4-5.1-2.6 0-1.9 1.4-2.7 1.8-4 0-3.8-0.2-6.8-3.7-2.4-4.4-2.3-0.9-3.8-0.2-3.9-0.3-2-2.1-1.3-3.7-4.4-3.4-4.2-6.8-4.5-2.7-3.3-0.3-5.4-1.1-1.7-2.6-0.4-3 0.4-0.1 2.2-0.6 5-0.2 3-2.1 2.6-3.5 2.5-2.5 2.2-2.6 1.4-7.2 0.4-4.1 1.7-2.3 1.4-3.3 0-4.2-1.6-1.1-3.4-0.5-3.7-0.2-1.4-1.9-0.2-2.5-1.5-1.2-0.2-3 0.2-1.4 4-3.5 1.6-1.4 1.2-1.1 2-1.6 1.8-1.7 2.4-0.4 1.6-2.8 2.1-3 2.8-2.4 1.7-1.6 3 0 4.3 0 5.1-1.4 3.2-1.1 11.7-0.5 3.6-1.8 4.2-5.4 4.5-1.6 3.3-1.2 0.7-5.5 2.1-5.9 2.8-3 3.9-1.8 0.2 0 1.5 0 3.1 0.2 2.6 0.5 2.7 1.8 1.9 3 0.7 2.6 3.3 0.2 3.3-0.9 1.9-0.9 2.6-5.6 0.4-5.4 0.1-3.9 1.1-1.9 1-0.7 3.3-0.2 2.3 0 3.7-0.5 1.7-1.4 2.8-1.3 2.4 0 1.9 0.7 1.4 2.3 2.7 1.4 3.4 1.4 3.3 1.8 1.2 2.8 1.8 3.5 1.9 1.5 0 3.7 2.2 3.4 3.8 4.1 1.8 1.2 3.4 0 1-1.6 0.9-2.5 0.9-1.7 1.8-0.9 0.7 2.4 0 5.8-1.3 2.7 0 4.3-0.3 4.9 0.7 4.1 1.9 2.5 2 3.4 0.8 4.1 0 3.4-0.2 3.4-1.1 2.4-0.9 1.5-0.8 3.3 0 2.7-0.5 5.1 0.2 7 0.9 4.1 1.8 6.3 1.6 3.4 3.1 0.9 3.7 0 3-0.2 2.4-0.2 4.6 0.4 1.4 0 0.7 2-1.3 1.4-0.7 3.9-1.8 3.1-2.2 4.4-0.5 4.3-0.2 5.6 2.2 4.1 1.8 0.9 2.7 4.6 0.1 5.9-0.5 9.2 0.5 6.8 0.7 3.6 2 1.4 2.7 0.8 3 0 2 0 2 0.2 0.9 2.4 0 4.1 0.7 5.3 0.1 0.2 0 0.1z" id="MK508" name="Prilep">
  </path>
  <path d="M421.6 732.8l-27-3.8-8.7 0.2-8.4 3.8-12.9 12.9-5.5 3.1-12 2.6-12.2 0-5.4-1.1 0.1-0.1 1-3.2 0.5-0.7 1.3-5.4 0.8-5.1 1.3-2.9 0.4-3.1-0.8-2.3-3.7-2.2 0.5-6-1.6-6-1.9-1.4-5-0.3-3.6 0-3.6-1.2 0-3.7-1.6-3.1-3.8-5.4-4.8-2.6-4.9 0-6.1 0.3-3.8 0-2.6-2.3 0-3.7-0.9-2.8-2.3-2.9-3-3.1-1.8-3.5-0.8-4 0-4.2-1.6-1.3-6.2-1.1-2.4-2.8 0-5.4 1.3-4.6 3-2.2 3.5-3.2 3.5-6.1 0.8-5.3-0.8-4.3-3.2-3.6 0-2.5 0.1 0 3.9-1.8 4.8-2.1 3.3-1.8 4.5-0.7 3.8-0.4 4.6-2.1 3.8-1.8 4-5.3 5.4-3.3 4.5-0.3 2.8-4.3 1.8-3.6 3.2-0.3 4.1-2.2 6.5-5 3.4-6.1 3.3-2.5 0.7-0.2 1.7-0.5 2.1 2.5 2.5 1.8 2.2 0.2 0.5 0.6 2.6 3.9 0 4-1.4 3.2-1.7 2.8 0 4.6 1.2 4.2 1.9 4.1 3.1 3.7 3.5 2.3 4.8 1.7 2 2.1 0.7 3.2 0.2 3-0.3 3.5 0 4.4-0.2 4.6 0.8 2.5 1.8 1.9 2.8 1.6 2.8 0.7 1.9 0 3.6-2.3 2.6-1.9 1.8-0.4 2.3 0 2.9 0.7 0.9 0.7-0.7 2.1 0 4.8-0.9 2.8-1.2 2-0.3 3.4 0.7 4.8 1.1 2 1.6 1.7 2.6 2.8 0.7 4.3 0.2 6.5 0.2 3.7 4.3 0.8 3.4 1.1 1.5 3.4 4.5 5.4 4.7 5.1 3.8 5.7 1.1 3.9 0.2 4.3 1.3 5.6 0 4.3-0.1 0.5-1.8 4.9-0.1 0.1z" id="MK501" name="Bitola">
  </path>
  <path d="M482.3 100.9l0.7 2.3 0.2 10.1 0 6.4 1.4 4.4 1 5.2 0 4-0.7 1.8-1.9 0.9-2.8 0.3-2.3 1.9 0 3.8 0.2 2.2-0.1 4-0.1 2.2-1.1 0.8-1.9-0.3-2.1-1.7-2.1-0.7-1.8 0.7-1.2 2.5 0 4.2 0.1 4.2-0.4 4.5-1.5 4.8-2.6 2.7-2.6 2.3-3.1 1.9-2.1 1-1 3 0.1 3.5 1.7 1-0.3 1.5-2.1 8.9-2.1 0.8-5.7-1.3-2.6-2.2-2.8-5.1-2.4-2.4-2.4-2.7-1.8-2.7-2.1-3.2-5.4-6.7-3.1-5.1-2.3-3.7-3.7-7.4-4-4.7 1.2-3.3 3-1.4 3.3-1.7 3.2-3 1-6.4 0-6.3-1.3-2.7-2.9-1-4-4.7-3.8-6.4-0.7-3.5-2.8-9.5 3.4-4.1 6.3 4.3 7.2-0.1 10.2-2.7 4.3-1.1 0.1 1 2.1-0.2 2.9 1.5 17.6-0.3 12.4 3.4 6.1 0.3z" id="MK704" name="Lipkovo">
  </path>
  <path d="M409.7 98.9l2.8 9.5 0.7 3.5 3.8 6.4 4 4.7 2.9 1 1.3 2.7 0 6.3-1 6.4-3.2 3-3.3 1.7-3 1.4-2-0.7-5.3 1.7-3.1 7.7-5.2 9.5-1.8 6.5-0.8 10.6 0.8 16.5-3 1.2-0.6 1-1.3-1.4-1.1-2.7-2.7-4.7-2.8-2.6-3 0.7-2.4 2.6-0.3 4.8 0 3.3-2.4 3.2-3.8-2.9-4.2-0.5 0-6.7-6.1-13.6-10.8-10.6-3.8-2.2 0.2-0.9 1.4 0 6.9 0-5.8-17.2 0-9.4 10.4-10.9 2.4-7.8 3.4-4.7 3.4-5.7 1.3-2.1 1-1.4 5-0.4 12.3 4.7 3.8-0.3-0.4-3.3-2.5-4.2-0.5-3.5 3.3 0.6 6.9 4.6 1.5-5.9 1.4 1.5 3.7 0.9 1.6-1.9z" id="MK816" name="Čučer Sandevo">
  </path>
  <path d="M349 166.2l3.8 2.2 10.8 10.6 6.1 13.6 0 6.7 0 3.3 0 10.6-0.2 7.2-9-0.8-5.4-7-3.8-8.8-4.1-7.6-1.1-6.3-2.9-3.3-2.8 0.4-2.1 2.6-3.8 0.7-3.3-1.8-2.5-6.2-0.8-8.9 0.9-3.6 3.2-1.4 1.2-0.4 11.6 2.3 3.7-0.8 0.5-3.3z" id="MK805" name="Gjorče Petrov">
  </path>
  <path d="M328.8 169.8l-0.9 3.6 0.8 8.9 2.5 6.2 3.3 1.8 3.8-0.7 2.1-2.6 2.8-0.4 2.9 3.3 1.1 6.3 4.1 7.6 3.8 8.8 5.4 7 9 0.8-0.2 7 0 8.8 0.6 1.5-1.2 2.2-3.7 0.4-4.3 0-6 3.4-6.9 5.4-4 3.9-4.3 5-4.6 3.4-8.6 3.1-5.1 2.3-1.7 3.5-0.1 1.1-1.6-0.9-1.9-0.9-4.6-5.6-2.3-0.3-2.7-3 0-4.7 0.9-8 1.2-6.7 1.3-5.9 0.3-6.1-1.2-1.9-4.8-2.8-4.6-3.4-4.3-1.8-3.7-0.9 0.1-0.5 0.1-2 1-0.9 1.8-0.9 4.8-1 4.1-1.8 2.6-0.9 0-3.7-3-5.6-0.9-3.7 0.3-2.7 2.3-2.7 3.4-1.5 1.4-1.9 0-4.3-1.4-4.2-2 0.4-2.3 1.5-2.5 0-2.9-3.4-2.8-2.7 1.4-2 4-1.9 5.1-0.4 4.3-0.8 4.3 0 4.3-0.7 3.9-4.7 2.3 6 3.7-1.7z" id="MK811" name="Saraj">
  </path>
  <path d="M322.8 165.5l-3.9 4.7-4.3 0.7-4.3 0-4.3 0.8-5.1 0.4-4 1.9-1.4 2 2.8 2.7 2.9 3.4 2.5 0 2.3-1.5 2-0.4 1.4 4.2 0 4.3-1.4 1.9-3.4 1.5-2.3 2.7-0.3 2.7 0.9 3.7 3 5.6 0 3.7-2.6 0.9-4.1 1.8-4.8 1-1.8 0.9-1 0.9-0.1 2-2.3 0.2-3.4 0-1.8 1-1.9 2.9-2.7 0-7.1-0.7-4.2-1.5-0.8-1.7 2.1-2.2 0-3.2-1.8-1.4-2.6 1.4-4 0-6.1-1.7-1.3-1.1 0-0.4-0.7-3-0.3-1.2 1.3-1.4 9.8-2.1 6-1.1 5.5-2.8 2.4-5.7 4-7.1 3.1-2.5 3.7-4.6 0.5-5.3-1.3-4.3-2.6-1.8-3.4-0.7-2.9-1.8-3.2-6.4-4.7-6.7-5.3-6.4-5.7-5.3 2.8-3.8 6.9-10.9 0.2-0.2 7.6-4.9 2.8 0 2.4 0.7 4.7 2.6 13.5 10.5 12.6 12.4 5.7 9.5 1.9 4 0.7 2.9 1.2 3.3z" id="MK606" name="Jegunovce">
  </path>
  <path d="M259.8 139.4l5.7 5.3 5.3 6.4 4.7 6.7 3.2 6.4 2.9 1.8 3.4 0.7 2.6 1.8 1.3 4.3-0.5 5.3-3.7 4.6-3.1 2.5-4 7.1-2.4 5.7-5.5 2.8-6 1.1-9.8 2.1-1.3 1.4 0.3 1.2-0.8-0.3-2.8-0.6-3.1-1.9-1-2 0-3.5 0-2.8 1-3.5-1.4-2.9-2.6-3.5-3.1-1.3-2.2 0-3-1-1.2-3.5-1.9-5.1-2.8-5.7-3.1-3.5-3.4-2-4.5-2.8-1.9-0.9 1.1-2.3 1.8-3.3 15.6-5.3 10.2-3.5 3.9-2 9.1 0 3-4z" id="MK608" name="Tearce">
  </path>
  <path d="M160.9 237.5l4-4.1 5.5-2.9 6.1-2.2 4.3-3.2 3.5-3.5 4.1-2.5 5.4-0.4 9.5 2.6 10.9 2.2 3.3 1.9 3.8 4.5 4.7 5.7 1.5 0.2 0.1 2.1 0.2 7 1.4 2.2 4.8 0 4 0.3-0.2 3.5-1.2 2.6-1.4 4.4-2.4 3.5-2.6 1.9-3.8 0.7-1.7 2.5 0.3 2.2 1.2 2.6 0.4 2.2-0.4 0-2.1 0-1.5 0-2.4-2.2-4.7-1-9-5.4-10.2-5.4-11.6-3.8-11.1-2.2-10.9-1.6-4.1 1.2-0.7 0.4-1.6-13.8 4.6-2.2z" id="MK601" name="Bogovinje">
  </path>
  <path d="M226.8 284.8l-2.5 1.1-1.4 1.6-1.7 2.6 0.9 4.4 0.8 3.2-3.6 4.1-6.7 2.2-11.3-2.8-9 1.2-4.3 3.9-6.4-1-6.1-3.5-2.2-3.2-2.1-6-2.4-2.9-4.7-0.6-5 0-4.5-0.3-1.5-0.8-7.4-3.2-4.5-4.6 3.2-3.5 1.8-3.2 3.4-5.8 0.7-1.2 3.4-8.3 1.2-1 3.5 0-0.5-3.7 0.7-0.4 4.1-1.2 10.9 1.6 11.1 2.2 11.6 3.8 10.2 5.4 9 5.4 4.7 1 2.4 2.2 1.5 0 0.6 1.9-0.2 5.4 0.2 3.2 2.1 0.8z" id="MK603" name="Vrapcište">
  </path>
  <path d="M776.4 142.1l-0.1 0-6 3.2-3.3 2.1-6.3 4.3-6.2 4.1-3.7 5.4-3.9 2.1-2.4 1.3 0 1-3.8-0.7-1.8-0.3-1.5 0-2.6 0-2.3 0-4.3 0.4-5.4 0.2-2.2 0.2-1 1.2 0 1.5-4.6-3.3-5.6-3.5-6.2-1.6-3.7-3.8-2.6-0.8-2.2 2.2-3 1-6.8 1.4-5.4 0.3-5.3-0.3-3.8 0-1.8-2.2 0.3-1.8 1.2-4.3 0.3-7-1.3-8.3-2.5-6.1-2.3-18.2-1-9.6 2.3-9.6-0.7-7-6.1-6.5-7.4-2.2-4.2-4.8-1.5-11.5 33.8-14.3 9.3-9.7 3.3-0.6 1.5 2.4 0.3 8.1 1 3.5 5.2 6.2 5.7 4.3 6.3 2.4 7 0.4 34.9 47.4 13.4 10.1 4.7 13.8 4.3 7.5z" id="MK702" name="Kriva Palanka">
  </path>
  <path d="M645.7 60.6l1.5 11.5 4.2 4.8 7.4 2.2 6.1 6.5 0.7 7-2.3 9.6 1 9.6 2.3 18.2 2.5 6.1 1.3 8.3-0.3 7-1.2 4.3-1 0.1-2.7 1.3-0.5 4.1 0.2 3.3-0.7 1.5-3.2 1.5-4.5 1.1-3.5 1.7-3.1 0.2-2.9 0-2.7-2.1-3.6-3.5-5.9-4.5-4-5.2-5.8-3.1-3.8-0.4-4.2 0-1.3-2.2-0.5-5.6 0-2-1-1-3.5 0-3.1-2.9-2.4-2.9 1.1 0.1 3 0 2.6-0.4 1.6-2.2 0-3-1.3-3.5-2.7-4.3-1.6-2.8-0.3-2.4 0.1-6.8 0-3.7-1-1.9-1.6-3-0.7-3.3 1.3-2.8 5-0.9 1.9-0.2 2.4-2.8 0-3.1-0.3-5-0.5-4.1-1.2-3.4-0.1-7 5.5 0.6 12.2-2.2 15.1-6.4z" id="MK705" name="Rankovce">
  </path>
  <path d="M612.9 68.6l0.1 7 1.2 3.4 0.5 4.1 0.3 5 0 3.1-2.4 2.8-1.9 0.2-5 0.9-1.3 2.8 0.7 3.3 1.6 3 1 1.9 0 3.7-0.1 6.8 0.3 2.4 1.6 2.8 2.7 4.3 1.3 3.5 0 3-1.6 2.2-2.6 0.4-3 0-1.1-0.1-2.3-0.3-4-0.2-3.6 0-1.7 1.3 0 2.6 0.3 5.6 0 3.3-0.3 4.9-3.4 6.8-3.5 5.4-4.2 1.5-4.5 0.2-0.4 0.5-1.4-3.9-1-4.3-1.6-3.8-2.4-1.1-3.1 0.3-2 1.3-0.8 2.7-0.1 2.1-1.6 2-1.1 0.3-3-0.1-6.1-1.8-3.6-1.4-1.5-1.6-1.6-1.7-2.4-0.1-4.1 0.8-2.8 1-2.5 2-3.3 0.6-3.6 1.8-1.7 2.7-2.8 0-2.8-1.2-2.2-2.9-3.7-4.2-3.2-4.8-1.2-3.8-0.3-4.6-0.1-3.1 0.1-2.9 0.5-2.3 1.4-2.1 1-2.2-0.2-4.8 0-4.6-1.2-2.3-0.9-1.2 0.2-3.8 0.7-2.5 1.8-1 2.6-0.5 3-1.1 0.7-2.3-0.1-4-2.3-2.8-2-1-3.1-0.7-3.6-1.5-0.6-1.3-7.3-3.3-3.3-3.2 34.6-21.2 7.2-1.6 14.1 0.1 2.5-0.6 12-10.5 3.8-1.8 4.5 1 18.9 9.8 11.6 4.2 6.3 0.7z" id="MK706" name="Staro Nagoričane">
  </path>
  <path d="M456.3 184.8l-1.7-1-0.1-3.5 1-3 2.1-1 3.1-1.9 2.6-2.3 2.6-2.7 1.5-4.8 0.4-4.5-0.1-4.2 0-4.2 1.2-2.5 1.8-0.7 2.1 0.7 2.1 1.7 1.9 0.3 1.1-0.8 0.1-2.2 0.1-4-0.2-2.2 0-3.8 2.3-1.9 2.8-0.3 1.9-0.9 0.7-1.8 0-4-1-5.2-1.4-4.4 0-6.4-0.2-10.1-0.7-2.3 5.4-3.4 5.1-6.2 4.6-2.8 3.3 3.2 7.3 3.3 0.6 1.3 3.6 1.5 3.1 0.7 2 1 2.3 2.8 0.1 4-0.7 2.3-3 1.1-2.6 0.5-1.8 1-0.7 2.5-0.2 3.8 0.9 1.2 1.2 2.3 0 4.6 0.2 4.8-1 2.2-1.4 2.1-0.5 2.3-0.1 2.9 0.1 3.1 0.3 4.6 1.2 3.8 3.2 4.8 3.7 4.2 2.2 2.9 2.8 1.2 2.8 0 1.7-2.7 3.6-1.8 3.3-0.6 2.5-2 2.8-1 4.1-0.8 2.4 0.1 1.6 1.7 1.5 1.6 3.6 1.4 6.1 1.8 3 0.1 1.1-0.3 1.6-2 0.1-2.1 0.8-2.7 2-1.3 3.1-0.3 2.4 1.1 1.6 3.8 1 4.3 1.4 3.9-1.3 1.7-1 6.9-4 5.2-2.2 4.6 0.3 3.2 1.4 2.2 2.8 0.4 3 0 3.2 0.2 1.2 2.6 0.5 3.9 0.9 4.8 1.6 1.7 2.6 1.5 4.2 4.1 0.9 3.6 0.2 0.5-0.8 3.7-3.4 2.6-6.4 2.4-5.2 2.8-3.8 0.2-2.1-2.2-2.3-4.5-3.7-4.1-4.8-1.3-5.3 0.2-4.3 0.9-2.6 2.6-5 4.1-1.9 2.6-0.8 3.2 0 3.5-1.8 2.4-2.9 2.3-1.1 2.6-2.7 2-0.5 1-1.3-0.7-3.5-2.5-2.8-4-3.3-2.4-5.1-0.1-4.1 0.3-2 1.6-2.7 1.2-2.4 0-2.1-1-1.3-3.8-3.5-2.7-3.5-0.7-5.2-2.8-1.9-2.3-0.5-0.5 0-2 0.4-3 0.6-2.7 0-4.2-0.9-1.8-2.2 0-2.6 0-4.1-3.5-4.3-3.7-4.2-2.5-1.1-2.9-0.2-0.8-0.2-4.6-2.8-1.9-4.2-2-3.2 0z" id="MK703" name="Kumanovo">
  </path>
  <path d="M819 175.4l17.3 8.8 10.6 2.3 1.6 1.4 1.3 2.1 1.6 1.9 2.3 1 16.2-0.7 3.6 0.4 1.6 1.9 0.8 3.1 1.2 3.2 2.8 2.2 2.5 0 5.4-1.9 2 0.1 4 2.7 2 2.4 0.6 3.3 0.1 0.3 0.3 6.3 0.1 0.1 2.8 5.1 0.8 5.2 0.6 11.4 2.7 11 3.8 10.8 0.5 3.4-0.1 7 0.9 3.6 0.5 0.5-0.1 0.1-1.1 1.1-1.4 1.6-4.4 3.2-6.3 4.5-4.7 5.2-2.2 4.1-2.8 6.1-1.9 3.6-3 0.5-4 1.6-2.6 4-3.5 3.9-2.9 0.4-3.2-0.4-0.8 0-5.9-3.4-5.1-1.6-7.2-0.9-6.1-0.7-3.5 0.2-0.9-2.4-0.3-0.7 0.2-4.8 0.7-3.4 2.5-3.4 2.2-4.3 1.5-7.6 1-6.8 3-5.5 1.4-3.1 1.5-1.4 0-2.5-1.2-0.2-2.2 0-3.2-0.7-4.3-1.1-7-3.6-6.7-3.7-7.1-2.2-3.9-0.9-1.5-1.4 0-4.1-0.1-5.2-0.5-6.3 0-7.5-0.3-3.1-0.7-7.8 0.8-2.5 1.7-0.6 1.7-0.3 2-0.4 0.8-1.4 0.2-3.4 0.2-4.5 0-6.8 0.1-7 0.5-6.9 0.2-4.5z" id="MK203" name="Delčevo">
  </path>
  <path d="M776.4 142.1l1.2 1.9 7.4 7.5 30.7 22.2 3.3 1.7-0.2 4.5-0.5 6.9-0.1 7 0 6.8-0.2 4.5-0.2 3.4-0.8 1.4-2 0.4-1.7 0.3-1.7 0.6-0.8 2.5 0.7 7.8-3.2-1.5-5.4-0.7-2.7 0.4-2.2 2.1-0.8 2.9-0.7 4.3-2.2 4.8-2.5 5.2-4 2.7-2.6 0-3.2-1.3-1.7-0.9 0-0.2 0-3.7-1.7-2.9-0.7-3.7 0.2-4.9-0.2-4.4-2.4-2.9-0.8-2.7-2.5-3.2-1.4-2.3 0.2-3.6-1-7.2-1.4-1.6-5.2-2.8-3.5-2-1.6-4.1 0-9.7-0.3-5.2-2.3-3.4-2.1-1.4-2.1 1.1-1.4 2.7-1.7 1.6-2.4-1.3-1.5-4.8 0-1.3 0-1 2.4-1.3 3.9-2.1 3.7-5.4 6.2-4.1 6.3-4.3 3.3-2.1 6-3.2 0.1 0z" id="MK207" name="Makedonska Kamenica">
  </path>
  <path d="M946 366.7l-3.1 5-2.3 6.9-1.1 2.4-2 1.2-5.6 1.6-1.7 1.7-1.7 5.4-1.1 6.5-0.3 6.9 0.6 6.3 1.1 2.7 3.4 5.3 0.8 3.2-0.3 2.7-1.7 7.9 0.2 7.3-0.2 0-3.2 0.7-3 1.3-12.5 0.9-9.1 0-2.3 0-1.7 0-3.3-4.5-3.1-2.3-6.9-0.4-5.2-0.2-6.2-0.9-4.2-0.9-5.3-3.6-3-3.7-1-4.2-2.5-3.6-3.7-0.5-1.4-0.2-9.2-2.3-5.4 0.3-2.4 0-0.3-2.3 0.1-1.8 2.2-1.1 2.2-0.7 0.9-2.2 0.1-3.6 0-3.6-1.1-3-1.7-1.5-4.2-1.2-5.1-5.4-2.4-0.6-1.7 1.4-1.9 4.5-1.7 0.9-1 0-1.1-3.4 0.4-4-0.3-0.9-1.4-3.3-0.6-3.9 0.2-3.1 2.1-2.9 3-5.6 1.9-2.5 0.2-2.6-1.7-1.9-2.7-1.4-2.6-2.3-1.3-6.2-0.2-4.9 0.1-3.5 0-0.1 2.9-2.5 3.8-0.7 4.9 0 3.4-4 2.4-5.7 1.3-5.6 0.5-7.9-0.5-5-1.2-2.5 0.7-3.8 0.8-0.2 0.9 2.4 3.5-0.2 6.1 0.7 7.2 0.9 5.1 1.6 5.9 3.4 0.8 0 0.5 3.8 2.9 6.8 2 6.3 2.5 1.4 0.7 2.7 0.2 4.5 1.3 3.1 2.9 0.7 1-0.7 0.3-2.5 2.1-1.5 4.8-0.3 15.5 3 4.1 1.8 1.8 3.4 0 3.3 1.9 0 3-0.2 5.6 0.5 5.4 3.4 6.7 5.6 4.9 1.6 4.7 1.6 4 2.9 1.7 1.5 0.2 0.2z" id="MK201" name="Berovo">
  </path>
  <path d="M909.4 274.3l1 1.2 4.2 2.2 1.6 1.9 2.2 5.7 3.8 16.3 7.6 17.8 2.2 3.5 3.9 1.8 8.4 0.4 3.7 1.8 6.3 10 0.2 11.2-3.8 11-4.7 7.6-0.2-0.2-1.7-1.5-4-2.9-4.7-1.6-4.9-1.6-6.7-5.6-5.4-3.4-5.6-0.5-3 0.2-1.9 0 0-3.3-1.8-3.4-4.1-1.8-15.5-3-4.8 0.3-2.1 1.5-0.3 2.5-1 0.7-2.9-0.7-1.3-3.1-0.2-4.5-0.7-2.7-2.5-1.4-2-6.3-2.9-6.8-0.5-3.8 3.2 0.4 2.9-0.4 3.5-3.9 2.6-4 4-1.6 3-0.5 1.9-3.6 2.8-6.1 2.2-4.1 4.7-5.2 6.3-4.5 4.4-3.2 1.4-1.6 1.1-1.1 0.1-0.1z" id="MK208" name="Pehčevo">
  </path>
  <path d="M291.5 218l-0.1 0.5 3.7 0.9 4.3 1.8 4.6 3.4 4.8 2.8 1.2 1.9-0.3 6.1-1.3 5.9-1.2 6.7-0.9 8 0 4.7 2.7 3 2.3 0.3 4.6 5.6 1.9 0.9 1.6 0.9-0.2 2.7 2.5 3.5 4.1 2.6 2 1.6 0 4.2-0.9 7.7-2 6.1 0.4 0.4-2.6-1.2-3.6-1.6-4-3.8-4.2-2.9-3.4-0.9 0-4.5-1.9-2.9-2.6 0-2.6 1-0.7 2.5-0.7 2.2-2.6 0.4-4.7 0-4 0-2.4-2.3-4.5-3.8-4.3 0-5.4-0.3-3.6-0.6-0.2-4.2 0.2-4.7 1-3.5 3-0.7 1-2.2 0-1.6-1.7-4.1-2.1 0-2.6 0-3.3-2-0.7-6.9 0-4.2-2-0.9-3-0.4-4.1-4.1-2.3-4.1-1.2-2.2 0-0.1 2.6-3.5 3.1-1.2 2.6-0.4 1.4-0.6 0.3-3.5-1.2-1-3.8-1.2-1.7-2.6-0.7-2.2-3.1-1-1.4-1.6 0-1.2 1.9-2.9 1.9-2.6 2.2-0.5 0 0.4 1.3 1.1 6.1 1.7 4 0 2.6-1.4 1.8 1.4 0 3.2-2.1 2.2 0.8 1.7 4.2 1.5 7.1 0.7 2.7 0 1.9-2.9 1.8-1 3.4 0 2.3-0.2z" id="MK605" name="Želino">
  </path>
  <path d="M270.4 319.2l-1.6-3.1-3.1-4.1-3.8-5.1-6.4-5.1-2.8-3.5 0.5-3.5-1-3.8-2.1 0-5.4 0.3-7.6-0.9-7.6-4.5-2.7-1.1-2.1-0.8-0.2-3.2 0.2-5.4-0.6-1.9 2.1 0 0.4 0-0.4-2.2-1.2-2.6-0.3-2.2 1.7-2.5 3.8-0.7 2.6-1.9 2.4-3.5 1.4-4.4 1.2-2.6 0.2-3.5-4-0.3-4.8 0-1.4-2.2-0.2-7-0.1-2.1 1.4 0.2 0.7-2 1.9-3.8 2.1-1.3 2.2 0.4 2.8 2.2 4.5 3.2 2.8 0.3 3.6 0.7 1.2 2.2 2.3 4.1 4.1 4.1 3 0.4 2 0.9 0 4.2 0.7 6.9 3.3 2 2.6 0 2.1 0 1.7 4.1 0 1.6-1 2.2-3 0.7-1 3.5-0.2 4.7 0.2 4.2 3.6 0.6 5.4 0.3 4.3 0 4.5 3.8 2.4 2.3 4 0 4.7 0 2.6-0.4 0.7-2.2 0.7-2.5 2.6-1 2.6 0 1.9 2.9 0 4.5-1.4-0.4-4.7 0-6.9 5.1-8.3 9.2-5.9 9.6-5 4.7-4.9 1.2z" id="MK602" name="Brvenica">
  </path>
  <path d="M261.2 380.7l1.8-6.8-0.7-8.3-1.2-3.1-1.6-2.3-1-2.5 0-3.8-0.5-4.1-3.3-2.6-1.7-4.7 0.5-2.6 1.9-1.6 2.9 0 0.9-1.9 0-4.7 0-7 1.9-4.5 7.4-0.6 1.9-0.4 4.9-1.2 5-4.7 5.9-9.6 8.3-9.2 6.9-5.1 4.7 0 1.4 0.4 3.4 0.9 4.2 2.9 4 3.8 3.6 1.6 2.6 1.2 3.6 3.9 4.3 4.9 5.1 8.5 6.6 9.2 5.5 10.7 6.8 6.2 5.8 0.7 2.2-1.7 2.6 0.9 4 0 3.2 3.5 0 11.4 0 4.8 4 8.4 3.1 3 0.4-1.4 0.5 3.3-2.3 4.2-3.1 3.9-2 1.9-1.2 1.5-0.3 3.1 1.5 3.8 0 4.6-0.3 5.7-0.2 1.5-1 0-1.8 0-0.5 5.8-0.4 8.6-2.2 5.6-2.6 3.2-3.2 3.7-2.1 2.6-1.9 3.5-1 3.3 0.2 7.2 0.1 5.1-1.7-0.5-2.8-1.4-1.9-1.4-3.7-1.4-4.1 0.7-1.5 1.9-1.4 3.2-1.9 1.2-2.5 0-2.6 1.6-0.5 1.2 0 2.8 0.4 0.6-1.5-0.2-3.2 0.3-0.8 3 0 2.8 0 4.3-1.3 3.8-4.9 2-6.5 2-4.7 2.4 0-1.4-1.1-3.7-3.4-2.1-3.7-0.5-4.1-1.7-2.1-2.3-1.3-2.3-0.4-1.8 0-3 0-3-0.2-1.3-1.7-1.3-4.4 0-2.8 2.1-2.3 1.2-2.6 0.8-3.3 1.2-3.4 0.3-1.9 0-3.4 1-0.1 0 0-2.3 0-1.9 0.7-3.4 2.6-1.6 3.3-1 2.2-3.5 5.2-3.7 4-5.4 4-4.1 3.6-2.3-0.2-2.8-3.4-2.2-4.5-2.2-4.2-4.1-1.9-2.9-1-7.6-1.2-2.8-0.2 0.3 0.5-6.4 0-7.3 0-6-1.9-3.8-5-2.2-3.8 0-3.8-0.3-2.1-1.9-1.1-4.3z" id="MK308" name="Brod">
  </path>
  <path d="M131.6 487.2l-0.9-1 2.8-5.3 1-3.2 1.2-5.7 0.7-5 1.4-4.1 2.4-3.2 2.8-0.6 1.7 0.9 1.7 0.7 3.9 1.5 5.7 1 4.5-1.6 3.8-3.8 4.2-8 4.4-2.5 0-5.9 0.4-4.4 4.5-5 0-5.9 0-5 0-8.9-2.3-12.9-0.6-3-1.4-0.2-4.8 1.2-2.8-2.2-0.3-3.1 3.8-4.8 8.1-0.3 2.8-2.2 6.2-7.3 4-2.6 3.3 0 4.8 0 1.8-1.5 5.7-0.6 3.8-0.4 7.4 2.2 5.4 2.9 5.3 3.8 3.3 4.4 2.6 3.2 3.2 2.9 0.3-2 1.9-1.2 3.3-2.6 5-0.6 4.5-1.6 3.8-0.6 3.1-2.6 2.1 0 0.1 0.2 1.1 4.3 2.1 1.9 3.8 0.3 3.8 0 5 2.2 1.9 3.8 0 6 0 7.3-0.5 6.4 0.2-0.3 1.2 2.8 1 7.6 1.9 2.9 4.2 4.1 4.5 2.2 3.4 2.2 0.2 2.8-3.6 2.3-4 4.1-4 5.4-5.2 3.7-2.2 3.5-3.3 1-2.6 1.6-0.7 3.4 0 1.9 0 2.3-6.4-2-5.5 0.7-0.9 1.9-0.2 3.1 1.6 4.2 0.8 4.1 0 3.4 2.3 3.8 4.3-1.2 2.3 0 0.3 0 3.1-1.6 2.8-0.3 1.2 2.5 2.6 4.7 4.7 2.2 5.5 2.3 1.8 1.4-0.8 1.9 2.4 5.6 0.4 2-1.5-0.9-5.4 2.7-1 3.6-5.4 5.4-5.7 3.6-10.5 0.5-7.1 0-9.9-0.3-8.4 3.7-8 6-2.1 4.3-2-2.9-3-6.6-2.9-3.2-6.6-2.2-2.6-5.4 0.7-5.3-1.2-6.1-3.8-7.8-2.4-6.7-1.6 0-11.9-0.3-7.6-1.9-10.8-0.9-9 0.3-15.9 0.3-11.4-0.6-3.1 2.8z" id="MK307" name="Kičevo">
  </path>
  <path d="M319.4 271.4l0.1-1.1 1.7-3.5 5.1-2.3 8.6-3.1 4.6-3.4 4.3-5 4-3.9 6.9-5.4 6-3.4 4.3 0 3.7-0.4 1.2-2.2 0.7 1.5 8.3 0 7.5 0 6.5 0 1.4 0 3 0 2.2 1.2 0 2.3 0 3.6 1.5 2.4-0.2 5.7-1.3 8-1.2 4-5.7 0.3-8.9 0.6-5.5-2.8-3.7-0.9-4.8 0-5.5 1.5-2.5 2.8 0 6.1 1.6 4.3 4.3 0 4.8 1.6 2.8 0.3 1.8 1.8-0.4 2.5-3.2 0-3.7 2.8-1.4 4-2 9.2-0.7 5.2-1.4 0.9-2.3 0-1.4 1.6-0.4 3.6 1.6 1.9 3.2 1.2 1.6 4.6-2.7 4.8-1.4 7.2 0 5.4 1.8 5.4 1 0.3-2.2 1.7-5.8-0.7-6.8-6.2-5.5-10.7-6.6-9.2-5.1-8.5-4.3-4.9-3.6-3.9-0.4-0.4 2-6.1 0.9-7.7 0-4.2-2-1.6-4.1-2.6-2.5-3.5 0.2-2.7z" id="MK812" name="Sopište">
  </path>
  <path d="M369.7 199.3l4.2 0.5 3.8 2.9 2.1 4.4 4.1 4.8 5.5 1.4 2.9 0 1.8-1.5-0.1 3.7-0.3 1.9 0.1 2.1-2.9 0.5-2.3 2.8-1 5.4 2.6 2.6 3.8 3.8-0.2 1.6 0.5 3-1.4 0-6.5 0-7.5 0-8.3 0-0.7-1.5-0.6-1.5 0-8.8 0.2-7 0.2-7.2 0-10.6 0-3.3z" id="MK808" name="Karpoš">
  </path>
  <path d="M380.1 199.5l0-3.3 0.3-4.8 2.4-2.6 3-0.7 2.8 2.6 2.7 4.7 1.1 2.7-0.4-0.4 0.2 6 1.2 4.6-1.6 1.4-2.4-0.4-2.2-2.9-0.8-2.9-2.2-2.6-3-0.4-1.1-1z" id="MK817" name="Šuto Orizari">
  </path>
  <path d="M414.7 145.5l-1.2 3.3 4 4.7 3.7 7.4 2.3 3.7-4.3 2.6-6.5 8.3-4 7.7-0.8 9.4 0 5.3 0 4.7 0 6.5-2.2 4.7-5.3 0 0 0.7-1.7-1.4-3.7-2.1-0.8-0.6-0.1 1.4-1.8 1.5-2.9 0-5.5-1.4-4.1-4.8-2.1-4.4 2.4-3.2 1.1 1 3 0.4 2.2 2.6 0.8 2.9 2.2 2.9 2.4 0.4 1.6-1.4-1.2-4.6-0.2-6 0.4 0.4 1.3 1.4 0.6-1 3-1.2-0.8-16.5 0.8-10.6 1.8-6.5 5.2-9.5 3.1-7.7 5.3-1.7 2 0.7z" id="MK803" name="Butel">
  </path>
  <path d="M393.8 219.5l-0.1-2.1 0.3-1.9 0.1-3.7 0.1-1.4 0.8 0.6 3.7 2.1 1.7 1.4 0 2.3-0.5 4.6-0.8-0.5-1.4 0.5-1-2.2-1.9 0-1 0.3z" id="MK815" name="Čair">
  </path>
  <path d="M394 234.6l-3.8-3.8-2.6-2.6 1-5.4 2.3-2.8 2.9-0.5 1-0.3 1.9 0 1 2.2-0.4 0.1-1.7 4.1 0.8 1-1.7 2-0.7 6z" id="MK814" name="Centar">
  </path>
  <path d="M456 477.4l-0.2 0-3.9 1.8-2.8 3-2.1 5.9-0.7 5.5-3.3 1.2-4.5 1.6-4.2 5.4-3.6 1.8-11.7 0.5-3.2 1.1-5.1 1.4-4.3 0-3 0-1.7 1.6-2.8 2.4-2.1 3-1.6 2.8-2.4 0.4-1.8 1.7-2 1.6-1.2 1.1-0.7-1.1-4-2.6-2.4-0.2-2.1 0-3.1 0.5-2.7 1.1-2.7 0.3-1.9 0-1.8-0.7-1-2.1-0.6-3.5-0.5-3.7-0.7-2.8-0.3-1.6-2.3-1-1.6 0.7-2.6 2.4-2.2 0.2-1.8 1.4-0.4 1.1-2.8-1.6-1.2-2.5-4.2-4.4-4.7-5.6-4-2.1 0.2-3.3 1.4-1.8 3.4-0.2 3.2 0.2 5.2 0.2 0.4-3.5 0-1.6-1.3-2.8-2.1-1.4-5.5-6.5-4.2-5.8-1.7-3.1-0.4-0.6 0-2.8 0.5-1.2 2.6-1.6 2.5 0 1.9-1.2 1.4-3.2 1.5-1.9 4.1-0.7 3.7 1.4 1.9 1.4 2.8 1.4 1.7 0.5-0.1-5.1-0.2-7.2 1-3.3 1.9-3.5 2.1-2.6 3.2-3.7 2.6-3.2 2.2-5.6 0.4-8.6 0.5-5.8 1.8 0 1 0 3 0 4.7 1.3 3.8 1.4 5.8 2.4 2.9 3.2 1.1 4 1.7 3.2 1.9 1.7 3.9 1.4 1.7 4.4 0.9 5.6 0 6.5 0.5 4.6 2.2 4.2 2.5 2.8 3.7 1.9 3.4 0 3.3 0 2.3-0.3 2.1-1.6 2.3-0.2 2.4 0.7 0.9 2.1 1 3.5 0.7 3.5 1.2 1.8 2.3 1.2 3.3 0.7 5.2 1.4 4.2 1.1 3.3 2.8 2.3 3.5 0.4 1.9z" id="MK503" name="Dolneni">
  </path>
  <path d="M387.8 521.2l-1.6 1.4-4 3.5-0.2 1.4 0.2 3 1.5 1.2 0.2 2.5 1.4 1.9 3.7 0.2 3.4 0.5 1.6 1.1 0 4.2-1.4 3.3-1.7 2.3-0.4 4.1-1.4 7.2-2.2 2.6-2.5 2.5-2.6 3.5-3 2.1-5 0.2-2.2 0.6-1.5-0.6-1.8-1.4-2.7-4.1-3.7-1.9-0.9 0.1-0.2-2.4-2.4-0.2-1.9-1 0.7-2.7 1.2-1.4 0.9-2.8 0.8-3 0.5-4.9-0.5-4.9-2.2-3.9-3-3-1.4-1.9-1.7-3.5 0-4.4 0.2-6.9 0-4.9 0.4-1.2 0.4-1.1 1.8-1.4 2.2-0.2 2.6-2.4 1.6-0.7 2.3 1 0.3 1.6 0.7 2.8 0.5 3.7 0.6 3.5 1 2.1 1.8 0.7 1.9 0 2.7-0.3 2.7-1.1 3.1-0.5 2.1 0 2.4 0.2 4 2.6 0.7 1.1z" id="MK504" name="Krivogaštani">
  </path>
  <path d="M454.8 613.6l-0.2 0.1-1.4 7.1-4.3 6-5.2 6.2-5.5 7.1-4.1 2.5-7.6-1.1-8.4-1.1-4.8-1.7-5.3-2.3-3.7 0-5.5 4-3.2 4.2-0.8 2.2-0.9-0.7-2.9-0.7-2.3 0-1.8 0.4-2.6 1.9-3.6 2.3-1.9 0-2.8-0.7-2.8-1.6-1.8-1.9-0.8-2.5 0.2-4.6 0-4.4 0.3-3.5-0.2-3-0.7-3.2-2-2.1-4.8-1.7-3.5-2.3-3.1-3.7-1.9-4.1-1.2-4.2 0-4.6 1.7-2.8 1.4-3.2 0-4-2.6-3.9-0.5-0.6-1.9-2-2-2.3 0.4-4.4 2.5-3.7 2.6-8.1 1.4-3.2 2.7-0.9 1.6-0.2 0.9-0.1 3.7 1.9 2.7 4.1 1.8 1.4 1.5 0.6-0.4 0.1 0.4 3 1.7 2.6 5.4 1.1 3.3 0.3 4.5 2.7 4.2 6.8 4.4 3.4 1.3 3.7 2 2.1 3.9 0.3 3.8 0.2 2.3 0.9 2.4 4.4 6.8 3.7 3.8 0.2 4 0 2.7-1.8 1.9-1.4 2.6 0 6.4 5.1 4.9 1.8 5.4 1 4.2 1.4 1.3 1.5z" id="MK506" name="Mogila">
  </path>
  <path d="M529.4 471.2l-0.3-0.5-1.7-1.9-4.1-0.7-2.2 2.1-2 3.9-3.1 3.7 0 0.6-1.9-1.5-1.8-3.5-1.2-2.8-3.3-1.8-3.4-1.4-2.7-1.4-1.4-2.3-1.9-0.7-2.4 0-2.8 1.3-1.7 1.4-3.7 0.5-2.3 0-3.3 0.2-1 0.7-1.1 1.9-0.1 3.9-0.4 5.4-2.6 5.6-1.9 0.9-3.3 0.9-3.3-0.2-0.7-2.6-1.9-3-2.7-1.8-2.6-0.5-3.1-0.2-1.5 0-0.4-1.9-2.3-3.5-3.3-2.8-4.2-1.1-5.2-1.4-3.3-0.7-2.3-1.2-1.2-1.8-0.7-3.5-1-3.5-0.9-2.1-2.4-0.7-2.3 0.2-2.1 1.6-2.3 0.3-3.3 0-3.4 0-3.7-1.9-2.5-2.8-2.2-4.2-0.5-4.6 0-6.5-0.9-5.6-1.7-4.4-3.9-1.4-1.9-1.7-1.7-3.2-1.1-4-2.9-3.2-5.8-2.4-3.8-1.4-4.7-1.3-3 0 0.2-1.5 0.3-5.7 0-4.6-1.5-3.8 0.3-3.1 1.2-1.5 2-1.9 3.1-3.9 2.3-4.2-0.5-3.3 1.7-5.9 1.1-6.5 1.7-2.7 4-1.5 2.6-2.7 2-4.6 2-3.8 2.3-4.6 3.7-3.1 6.9-1.9 3.1-1.2 2.1 2.1 4.9-0.3 6.4-0.2 7.4-0.2 7.7-0.2 2.6 0.8-0.3 1.1 2.2 3.1 3.1 6.3 2.5 5.4 1.8 1.4 2.1 0 1.5-1 1.2-1.3 1.9 0 2 0.4 2.7 1.5 2.9 1.2 4.3 0.9 3.9 0.2 3.8 1.9 2.1 5.2 1.3 7.9 2.9 4.5 0.9 4-0.1 2.7 0.6 2.7 1.9 2.9 1.9 0.2 1.8-0.8 1.1-0.9 2.2-2 1-1.3 1.8-0.4 1.2 1.9 0.2 3.1 0.1 5 0.6 3.9 3.1 3.5 8.1 2.1 3.5 0.4-0.1 0.7-0.3 5-0.2 3.5 2.2 3.1 4.3 3.3 4.2 2.7 1.4 2.9 0 4.6-1.6 3.5-2.4 2.5-2.4 2.9-0.6 4.3-0.1 5 1.1 4.1 3.7 2.3 4.2 2.7 1.7 0.9-1.1 3.9-0.5 2.9-0.6 6.1 0 1.9z" id="MK109" name="Čaška">
  </path>
  <path d="M591 449.2l-1.1 1.2-1.1 3.9 0.4 6.3-0.9 7.7-3.7 2.4-2.5 1.5-1.5 1.9-0.1 3.7-1.8 0.7-2-0.7-2.9-2.5-3-1.4-2.3-1-3.1 0-1.6 1.7-0.8 6.1-2.5 1.9-5.5 0.3-5.4 0-2.4 0.7-2.7 0-6.3-0.7-3.2-3.4-3.6-5.1-2-3.2 0-1.9 0.6-6.1 0.5-2.9 1.1-3.9 0.2-0.7 2-1.9 2-1.5 3.8-0.5 2 0 1.7-1.4 1-1.7 0-2.5-0.7-4.3-0.5-1.2 0-2.2 0-2.2 1-1 2.6-0.2 2.9 1 1.8 1.7 5.3 2.6 5.4 0 2-2.4 1.3-3.6 2.2-2.7 2.2-1.7 4.1 1 2.2 1.9 2.6 0 2.5 0 0.2-1.9 0.7-4.9 3.1-1.9 2.9 0 2.8 1.6-0.1 0.1 0 4.8 0.6 10-0.4 8.5z" id="MK107" name="Rosoman">
  </path>
  <path d="M626.8 521.9l-2-1.5-3.5-2-0.1-2.1 0.1-2.9-0.7-3.9-3.1-5.3-1.6-7.3-0.2-8.7 0.2-8-1.6-7.3-1.1-5.1-0.9-5.5 0.1-9.7-1.8-2.7-3.6-1.5-2.9 0.5-3.6 2.2-3.2 0.2-3.8 0-2.5-2.1 0.4-8.5-0.6-10 0-4.8 0.1-0.1 1-0.9 2.2 0 1.6 1.9 0 5.4 0.8 3.6 1.1 1.8 2.1 0 2.4-0.2 0.9-1.6 1.3-3.5 1.5-3.7 0-2.3-1.9-2.1-1.2-0.6-0.4-1.4 0.1-1.3 0.9-2 2.2-3.3 1.2-2.7 1.4-3.3 0-2.5-0.4-2.1-2.2-1.8-1.9 0-2.9 1-2.8 1.3-2.6 1.6-2.6 0-2.3-1.4-1.2-2.1 0-2.5 0.5-2.7 1.5-3.6 2.5-2.7 2.2-1.1 2-4.5 1.9-2.7 1-3-0.2-2.9 1 0.8 3.1 2.7 3.4 0.2 3.5 1.4 1.3 1.8 2.6 4.6 2.9 3.3 1.8 0 1.7-0.8 1.2-1.5 1.1-3.1 1.8-3.3 2.4-0.4 1.8 1.7 1.3 2.2 1.3 3.3 1.3 5.4 0.5 5.3 1.5 4.4 2.2 1.8 2.9-0.8 5 0.4 4.6 0.2 5.7 1.9 1 3.1 0.2 6.8 2.7 1.8 3.9 1.7 3.7 2.4 5.3 3.8 6.3 1.8 6.7-0.2 2.7-0.6 2.3 2.9 3.9 4.3 3 4.9 2.5 3.9 1.7 3.8 0.2 4.7 0.5 1.2-1.8 2.1-3.8 3.6-2.7 1.3-1.6 1.4-1 2.1-0.9 2.6-1.3 2-1.3 1.2-1.8 0-3.2-1-2.4-1.4-3.1-1.5-3.6-2.1-1.7-1.5-2-2.1-2.1-0.7-3.2 0-2.5 1.7-3.8 4.7-3.6 2.7-1.6 2.8-1.8 6.3-1.3 5.7-1.5 3.4-1.3 2.9-1.7 1.4-2.1 1.7-1.9 0.2-1.2 1.7-0.4 1.5 0.9 2.1 2.2 3.1 2.3 2.9 1 2.6 0 2-0.5 2.7-0.8 2.4-0.6 3-1 1.8-1.9 0.6-3.4 0.6-5.4 0-4.8-0.5-2.1 0.2z" id="MK106" name="Negotino">
  </path>
  <path d="M423.5 164.6l3.1 5.1 5.4 6.7 2.1 3.2-0.8 1.9 0 3.5 0.3 2 2 3 1.3 2 0.2 2.6 0.7 3.7 0.3 5-0.2 2.1-2.5 2.4-1.6 2.7-0.3 4.5-0.2 3.7 0.5 0.5-1.5 2.5-2 3.1 0.2 1.7 0.8 1.5 3.4 2.2 2.4 0.7 2.9 2.2 2.8 1.9 2.4 1.8 1.8 3.3 1.5 3 0.1 3.8 0.2 4 0.2 0.5-0.7 1.1-2.9 3.1-0.3 0.4-2.2-4.2-2-3.7-1.7-0.8-0.4 0.2-2.9-4.8-6.1-4.7-9.7-4.7-7.4-5.9-5.3-2.9-3.5-0.6-1.7-1.2-2.3-1.3 0.5-4.6 0-2.3 0-0.7 5.3 0 2.2-4.7 0-6.5 0-4.7 0-5.3 0.8-9.4 4-7.7 6.5-8.3 4.3-2.6z" id="MK804" name="Gazi Baba">
  </path>
  <path d="M353.7 587.4l-2.2-0.2-2.5-1.8-2.1-2.5-1.7 0.5 0.2-4.8 1-3.2 0-5.8 0-4-2.1-3.6-4-3.6-1.7-5.8-1-5.8-4.4-5.4-3.3-1.3-3.4 1.8-3.7 0.4-2.7 0-0.6-1.8 0-2.7 0.3-4.5 0-6.2 0-5.4-2.3-3.6-4.1 0-5.4-0.9-5.4 0.9 0-3.1 0-3.6-2.6-2.2-5.8-2.7-2.5-1.4-0.4-2-2.4-5.6 0.8-1.9 0.7-1.4 2.6-1.7 3.3-1.6 5.5-2 4.3-1.5 5.1-3 0.4-0.2 4.7-2.4 6.5-2 4.9-2 1.3-3.8 0-4.3 0-2.8 0.8-3 3.2-0.3 1.5 0.2 1.7 3.1 4.2 5.8 5.5 6.5 2.1 1.4 1.3 2.8 0 1.6-0.4 3.5-5.2-0.2-3.2-0.2-3.4 0.2-1.4 1.8-0.2 3.3 4 2.1 4.7 5.6 4.2 4.4 1.2 2.5 2.8 1.6-0.4 1.2 0 4.9-0.2 6.9 0 4.4 1.7 3.5 1.4 1.9 3 3 2.2 3.9 0.5 4.9-0.5 4.9-0.8 3-0.9 2.8-1.2 1.4-0.7 2.7 1.9 1 2.4 0.2 0.2 2.4-1.6 0.2-2.7 0.9-1.4 3.2-2.6 8.1-2.5 3.7-0.4 4.4 2 2.3 1.9 2z" id="MK505" name="Kruševo">
  </path>
  <path d="M256.4 586.7l-0.5-2.3-2.3-3.9-1.1-1.8-2.6-5.7 0-5.5-4.1-2.3-2.4-3.1-1.9-5.2-1.5-4.3-3.4-2-3.5-1.7-3.4-2.9-2.6-2.8-0.9-3.8 0-4.8 0.5-0.9 2.1-4.3 8-6 8.4-3.7 9.9 0.3 7.1 0 10.5-0.5 5.7-3.6 5.4-5.4 1-3.6 5.4-2.7 1.5 0.9 2.5 1.4 5.8 2.7 2.6 2.2 0 3.6 0 3.1 5.4-0.9 5.4 0.9 4.1 0 2.3 3.6 0 5.4 0 6.2-0.3 4.5 0 2.7 0.6 1.8 2.7 0 3.7-0.4 3.4-1.8 3.3 1.3 4.4 5.4 1 5.8 1.7 5.8 4 3.6 2.1 3.6 0 4 0 5.8-1 3.2-0.2 4.8-0.7 0.2-3.3 2.5-3.4 6.1-6.5 5-4.1 2.2-3.2 0.3-1.8 3.6-2.8 4.3-4.5 0.3-5.4 3.3-4 5.3-3.8 1.8-4.6 2.1-3.8 0.4-4.5 0.7-3.3 1.8-4.8 2.1-3.9 1.8-1.1-1.6-3.6-5.7-2-7.5 0-6-1.7-9.7-1.5-3.7-3.4-0.3-3.2 0-2.4-2.9-1.1-4-0.4 0.9z" id="MK502" name="Demir Hisar">
  </path>
  <path d="M397.7 221.4l1.4-0.5 0.8 0.5 2.3 1.3 1.7 1.2 3.5 0.6 5.3 2.9 7.4 5.9 9.7 4.7 6.1 4.7 2.9 4.8-2.4 1.5-2.4 2.2-1.6 0.7-3-4.5-5.3-4.1-4.9-1.2-7.4-2.9-3.9-3-4-5.3-4.4-0.6-3.1-3.7-0.8-1 1.7-4.1 0.4-0.1z" id="MK801" name="Aerodrom">
  </path>
  <path d="M382.5 373.2l-0.4 1.4-3.1-3-4-8.4 0-4.8 0-11.4-3.2-3.5-4 0-2.6-0.9-1-0.3-1.8-5.4 0-5.4 1.4-7.2 2.7-4.8-1.6-4.6-3.2-1.2-1.6-1.9 0.4-3.6 1.4-1.6 2.3 0 1.4-0.9 0.7-5.2 2-9.2 1.4-4 3.7-2.8 3.2 0 0.4-2.5-1.8-1.8-2.8-0.3-4.8-1.6-4.3 0-1.6-4.3 0-6.1 2.5-2.8 5.5-1.5 4.8 0 3.7 0.9 5.5 2.8 8.9-0.6 5.7-0.3 1.2-4 1.3-8 0.2-5.7 0.3 0.5 0.9 0 3 0 3.1-1.8 3.5 0 3.3 3.8 0 5.5 0 4.8 0.8 2.2 4.3 1.7 2.7-1.3 1.4-2.4 0.7-2.8 1-2.8 1.7-2 1.9-0.6 2.4-1.4 0.4-0.2 1.6-0.7 2.4-2.2 2.4-1.5 0.4-0.2 1.7 0.8 2 3.7 2.2 4.2-1 1.2-0.8 2.9 0.8 2.6 2.1 0.5 3.7 0 0.3 0-1.5 2.7-4.5 1.5-3.2 2.1-3.7 3.1-4.7 2.5-0.9 6.7-2.3 4.6-2.7 2.2-1.7 2.5-0.2 4.4-0.6 3-1.6 1.8-3.2 0.2-2-0.4-0.9-1.2-0.2-3.4-0.6-1.8-2.7-0.3-2.9 3.4-2.4 5.2 0.5 6 0 4 1.3 3.3 4.3 5.6 1.4 3.4-0.9 3.5-1 2.7 0 4 0.3 0.2-3.1 1.2-6.9 1.9-3.7 3.1-2.3 4.6-2 3.8-2 4.6-2.6 2.7-4 1.5-1.7 2.7-1.1 6.5-1.7 5.9z" id="MK813" name="Studeničani">
  </path>
  <path d="M401 248.7l-1.5-2.4 0-3.6 0-2.3-2.2-1.2-3 0-0.5-3 0.2-1.6 0.7-6 1.7-2 3.1 3.7 4.4 0.6 4 5.3 3.9 3 7.4 2.9 4.9 1.2 5.3 4.1 3 4.5-0.4 0.2-2.4 1.4-1.9 0.6-1.7 2-1 2.8-0.7 2.8-1.4 2.4-2.7 1.3-4.3-1.7-0.8-2.2 0-4.8 0-5.5-3.3-3.8-3.5 0-3.1 1.8-3 0-0.9 0-0.3-0.5z" id="MK809" name="Kisela Voda">
  </path>
  <path d="M687.6 237.8l-1.6-1-1.3 0.2-2.4 1.8-2.7 5.2-0.9 3.8-0.6 4.1-2 3.4-3.1 1.6-2.5 2-2.6 3-1.9 0-1.5 0.8-1 2.4 0.4 3.4 4.5 6.6 7.9 9.9-1.5 1.7-3.4 0.4-5.1 0-4.2 0.2-3.7-1.6-1.2-3.8 0-2.2-1.1-2-2.2-0.6-4.2 2.2-0.7 0.7-0.3-0.6-0.9-1.6-1.4-0.9-0.9 0.3-1.1 0.6-1.2 0-2-0.6-2.3-1.2-2.8-0.3-2.5 0-1.9 0.5 0-1.1-2.4-2.7-1-0.8-1.2-1.9 0.2-1 1.8-1.4 1-3 0.2-3.2-0.2-1.9-1.4-1.1-3.2-0.8-2.2-2.1-4-7.3-3.1-6.5-3.6-2.2-6-4.6-4.8-4.6-1-3.5 0.8-5.1 1.8-3.8 1.8-4.3 0.4-0.2 1.2-0.6 1.2 0 2.2 1 3.4 1.9 2.5 1.9 1.6 0.6 1.6-0.3 0.8-1.9 0.8-3.5 1.4-3.8 2.4-3.2 2-1.1 3 0.3 4.4 0 4.7-0.9 3.3-1.9 8.6-3.2 3.8-1.6 3.5 2.4 1.5 3.5 1.9 1.4 4.2 0 2-0.6 1.8-1.9 1.8-0.8 1.8 0.3 1.8 2.2 2 3.2 2.8 1.1 1.7 0 2.4-3.5 0-6.2 0-8.2 1.4-1 2.2 0 4.2-0.3 5.8 0 6.4 0.5 4.3 2.5 5.2 4.6 2.9 4.7-0.5 2-1.3 4.5-1.2 5.5-1.6 0.4-2.7 1.6-2.7 1.8-2.2 3.7-1.6 3.8-5.1 4.1-4.4 4.5-3.5 2.6-1.7 2.1 0 0.5z" id="MK209" name="Probištip">
  </path>
  <path d="M676.3 285l-7.9-9.9-4.5-6.6-0.4-3.4 1-2.4 1.5-0.8 1.9 0 2.6-3 2.5-2 3.1-1.6 2-3.4 0.6-4.1 0.9-3.8 2.7-5.2 2.4-1.8 1.3-0.2 1.6 1 0.1 0.3 1.5 4.2 4.5 5.7 5.4 3.7 7.3-0.2 4-0.2 2.5 0 0.8 1.2 0.3 2.2-0.3 1.3-1.1 0.8-0.9 2.2 0 3.3 0.3 7.9 1.4 2.8 0.8 1.7 0.6 2.2 1.1 4.9 2.1 1 1.6 0 1.9 2.6 1.2 0.7 0.4 0 0.1 6.3 0.9 4 3.5 3.3 3.9 5.1 2.2 3.9 1.5 3.4 0.1 0-1.1 1.7-3 0-4.5-0.6-3.4-3.4-4.3-4.4-4.1-0.2-4.1 0.6-6.7-1.2-7.2-1.2-9.3-6.8-7.7-7.3-3.6-4.3z" id="MK210" name="Češinovo-Obleševo">
  </path>
  <path d="M434.1 179.6l1.8 2.7 2.4 2.7 2.4 2.4 2.8 5.1 2.6 2.2 5.7 1.3 2.1-0.8 2.1-8.9 0.3-1.5 3.2 0 4.2 2 2.8 1.9 0.2 4.6 0.2 0.8-2 1.8-4.6 4.9-3 4.3-4.2 5.4-2.3 2.5-3.2 0.3-3.5 1-3.9 2.1-2.2 1.3-1.7 2.1-1.7 0.2-0.8-0.8-0.5-0.5 0.2-3.7 0.3-4.5 1.6-2.7 2.5-2.4 0.2-2.1-0.3-5-0.7-3.7-0.2-2.6-1.3-2-2-3-0.3-2 0-3.5 0.8-1.9z" id="MK802" name="Aračinovo">
  </path>
  <path d="M444.7 336.7l-2.6-0.8-7.7 0.2-7.4 0.2-6.4 0.2-4.9 0.3-2.1-2.1-0.3-0.2 0-4 1-2.7 0.9-3.5-1.4-3.4-4.3-5.6-1.3-3.3 0-4-0.5-6 2.4-5.2 2.9-3.4 2.7 0.3 0.6 1.8 0.2 3.4 0.9 1.2 2 0.4 3.2-0.2 1.6-1.8 0.6-3 0.2-4.4 1.7-2.5 2.7-2.2 2.3-4.6 0.9-6.7 4.7-2.5 3.7-3.1 3.2-2.1 4.5-1.5 1.5-2.7 2 0.3 3.1 0 3.3 1 4.6 2.3 3.3-0.3 1.7 2.5 0 6.5-0.3 11.2-0.3 6.5-1.1 2.1-1.1 1.2-0.7 1.5 0 0.9-1.7 0.6 0 3.1 0 3.8 0 2.3 1.4 2 1.7 1.1 0 2.7 0 5.8-2.1 3.1-3.2 5.2-1.8 3.6-2.2 1.4-5.6 2.1-6.4 0.6-0.1 0.4z" id="MK806" name="Zelenikovo">
  </path>
  <path d="M269.4 466.4l0.1 0 3.4-1 1.9 0 3.4-0.3 3.3-1.2 2.6-0.8 2.3-1.2 2.8-2.1 4.4 0 1.7 1.3 0.2 1.3 0 3 0 3 0.4 1.8 1.3 2.3 2.1 2.3 4.1 1.7 3.7 0.5 3.4 2.1 1.1 3.7 0 1.4-0.4 0.2-5.1 3-4.3 1.5-5.5 2-3.3 1.6-2.6 1.7-0.7 1.4-1.8-1.4-5.5-2.3-4.7-2.2-2.6-4.7-1.2-2.5-2.8 0.3-3.1 1.6-0.3 0-2.3 0-4.3 1.2-2.3-3.8 0-3.4-0.8-4.1-1.6-4.2 0.2-3.1 0.9-1.9 5.5-0.7 6.4 2z" id="MK311" name="Plasnica">
  </path>
  <path d="M485.8 220.9l1.9 2.3 5.2 2.8 3.5 0.7 3.5 2.7 1.3 3.8 2.1 1 2.4 0 2.7-1.2 2-1.6 4.1-0.3 5.1 0.1 3.3 2.4 2.8 4 3.5 2.5 1.3 0.7-1.3 2.7-2 6.5-0.1 5.3-4 2.9-3 2.3-5.2 4-4.8 1.8-4.5-0.2-2 1.1-0.3 1.6 0.4 4 0.5 3.5 0 4.6-0.5 4-0.8 4.5-1.7 4.8-1.2 5-1.1 4.8-0.9 1.9-1.9 0.6-4.2-1.5-1.7-2.9-2.1-2.7-2.5 0-0.2 1.7-1.5 1.9-2 1.8-1.3 2.5-2 0-0.3-1 0.8-1.7-0.2-3.5-0.9-0.9-1.4 0.7-1.7 1.6-2.7-0.2-3.8-0.6-3.6-1.6-0.1-1.2 0-0.9 0.7-1.5 1.1-1.2 1.1-2.1 0.3-6.5 0.3-11.2 0-6.5-1.7-2.5-3.3 0.3-4.6-2.3-3.3-1-3.1 0-2-0.3-0.3 0-3.7 0-2.1-0.5-0.8-2.6 0.8-2.9 1-1.2 0.3-0.4 2.9-3.1 0.7-1.1 0.9-1.5 2.7-0.8 3.9-2.6 4.2-2.1 2.3-3.3 3.2 0 2.9 2.6 3.1 1.5 2.9-0.2 3.7-0.3 2.5-0.3 1.1-2.3-0.7-4.2-2.2-2 0-1.8 0.5-2.1 1.2-2.3 1.9-4.2 1.8-4.3 0.9-0.3z" id="MK810" name="Skopje">
  </path>
  <path d="M543.3 291.8l5 0.3 3.6 1.4 4.6 6.4 3.4 4.1 5 2.1 4 0.8 3.1 2.5 5.6 7.5 5.8 7.3 7 7.3 6.3 5.4 5 3.3-1 0.4-1.3 0.4 0 1.5 1.3 1.4 0 1.9-0.6 1.2-2.5 0.2-1.1 0-1.5 0.4-0.5 2.3-0.8 1.8-1.3 0.4-2-1.6-1.2-1.9-2.6-2.6-1.9-1.1-1.9 0-2.2 1.1-1.4 3.3-2 2.2-1.5 1.9-0.7 2.7-0.6 3.4 1 1.9 2.8 2.5 2.7 2.2 1.6 1.3 0 2.7 0.2 2.6 0.3 0.3-1.3 2.7-3.4 3.3-3.9 2.5-2.8 0-3.6-0.4-4.5-1.2-2.2-1.3-1.2-2.9-0.8-4.8-0.7-3.7 0-4.8-0.2-4.3-1.7-5.4-0.5-4.2-0.9-1.7-2.2-0.6-2.6 0-1.4 0-1.1 0.9-0.3 2.3 0 0.8-1.7-2.5-2.6-5.4-1.6-2.7-2.8-1.1-2.2 0-1.8 0-1.1-1.6 0.5-2.7 0.4-1.3 1.6-3.3 2.2-4.6 0.7-2.4 0-3.4-1.8-2.7-1.8-1.9-2.3-3.1-1.2-1.6-0.6-1.9 1.1-1.9 2.1-2.3 2.2-1.9 3.3-3.9 1.8-1.9 1.3-2-0.1-2.3z" id="MK105" name="Lozovo">
  </path>
  <path d="M530.5 240.8l0.5-1 2.7-2 1.1-2.6 2.9-2.3 1.8-2.4 0-3.5 0.8-3.2 1.9-2.6 5-4.1 2.6-2.6 4.3-0.9 5.3-0.2 4.8 1.3 3.7 4.1 2.3 4.5 2.1 2.2 3.8-0.2 5.2-2.8 6.4-2.4 3.4-2.6 0.8-3.7-0.2-0.5 1.9 0 2.7 0 2.1 0 2.2-0.4 2.8-0.6 2.1 0.4 0.1 0.4-0.4 0.2-1.8 4.3-1.8 3.8-0.8 5.1 1 3.5 4.8 4.6 6 4.6 3.6 2.2 3.1 6.5 4 7.3 2.2 2.1 3.2 0.8 1.4 1.1 0.2 1.9-0.2 3.2-1 3-1.8 1.4-0.2 1 1.2 1.9 1 0.8 2.4 2.7 0 1.1 0 1.9-1 1.9-1.8 1.3-2.2 0.8-0.6 1.9 0.4 3.5 1.4 1.9 1 2.7 1.6 2.4 0.6 2.7-0.4 3-2.2 1.4-2.1 1.3-2.6 4.6-2.8 3.8-2.8 3.7-2.2 3.8-2.1 0.5-2.8 0.8-1.6 0.6-1.2 1.3-0.2 1.9 1.6 3.3 1.8 2.4 1 3.5-0.2 3.2-1.8 0.6-0.8 1.6-0.4 1.6 1.2 1.3 1.8 0.8 0.8 3.5-1.2 1.4-2 0-2.4-1.1-2-3-3.2-2.4-0.6-0.4-5-3.3-6.3-5.4-7-7.3-5.8-7.3-5.6-7.5-3.1-2.5-4-0.8-5-2.1-3.4-4.1-4.6-6.4-3.6-1.4-5-0.3-3.2-3.7-4.6-6-4.6-5.9-1.6-5.6-2.3-9.2 0-5.2 0.1-0.9 0.1-5.3 2-6.5 1.3-2.7z" id="MK108" name="Sveti Nikole">
  </path>
  <path d="M531.6 456.4l-1.7-0.9-4.2-2.7-3.7-2.3-1.1-4.1 0.1-5 0.6-4.3 2.4-2.9 2.4-2.5 1.6-3.5 0-4.6-1.4-2.9-4.2-2.7-4.3-3.3-2.2-3.1 0.2-3.5 0.3-5 0.1-0.7 0.6-4.5 0.5-2.9 1.1-1.6 2.5-0.3 2.9 0 3.9-0.6 3.4-5.4 1.9-4.5 1.7-4.6 2.3-4.8 5.9-6 3.1-3.9 1.4-6.9 0-3.9 0-2.3 0-0.8 0.3-2.3 1.1-0.9 1.4 0 2.6 0 2.2 0.6 0.9 1.7 0.5 4.2 1.7 5.4 0.2 4.3 0 4.8 0.7 3.7 0.8 4.8 1.2 2.9 2.2 1.3 4.5 1.2 3.6 0.4 2.8 0 3.9-2.5 3.4-3.3 1.3-2.7 1.1 0.8 6.1-0.5 3.7 0.4 5.1 2.9 1.6 1.3 0.2 2.9-1 3-1.9 2.7-2 4.5-2.2 1.1-2.5 2.7-1.5 3.6-0.5 2.7 0 2.5 1.2 2.1 2.3 1.4 2.6 0 2.6-1.6 2.8-1.3 2.9-1 1.9 0 2.2 1.8 0.4 2.1 0 2.5-1.4 3.3-1.2 2.7-2.2 3.3-0.9 2-0.1 1.3 0.4 1.4 1.2 0.6 1.9 2.1 0 2.3-1.5 3.7-1.3 3.5-0.9 1.6-2.4 0.2-2.1 0-1.1-1.8-0.8-3.6 0-5.4-1.6-1.9-2.2 0-1 0.9-2.8-1.6-2.9 0-3.1 1.9-0.7 4.9-0.2 1.9-2.5 0-2.6 0-2.2-1.9-4.1-1-2.2 1.7-2.2 2.7-1.3 3.6-2 2.4-5.4 0-5.3-2.6-1.8-1.7-2.9-1-2.6 0.2-1 1 0 2.2 0 2.2 0.5 1.2 0.7 4.3 0 2.5-1 1.7-1.7 1.4-2 0-3.8 0.5-2 1.5-2 1.9-0.2 0.7z" id="MK102" name="Gradsko">
  </path>
  <path d="M668.9 155.7l-0.3 1.8 1.8 2.2 3.8 0 5.3 0.3 5.4-0.3 6.8-1.4 3-1 2.2-2.2 2.6 0.8 3.7 3.8 6.2 1.6 5.6 3.5 4.6 3.3 0 0.9 0.5 3.3 1.6 3.7 0.6 3.6-0.4 3.9-2.5 4.4-1 4.7-2.3 8.1-2.9-4.7-5.2-4.6-4.3-2.5-6.4-0.5-5.8 0-4.2 0.3-2.2 0-1.4 1 0 8.2 0 6.2-2.4 3.5-1.7 0-2.8-1.1-2-3.2-1.8-2.2-1.8-0.3-1.8 0.8-1.8 1.9-2 0.6-4.2 0-1.9-1.4-1.5-3.5-3.5-2.4-3.8 1.6-8.6 3.2-3.3 1.9-4.7 0.9-4.4 0-3-0.3-2 1.1-2.4 3.2-1.4 3.8-0.8 3.5-0.8 1.9-1.6 0.3-1.6-0.6-2.5-1.9-3.4-1.9-2.2-1-1.2 0-1.2 0.6-0.1-0.4-2.1-0.4-2.8 0.6-2.2 0.4-2.1 0-2.7 0-1.9 0-0.9-3.6-4.2-4.1-2.6-1.5-1.6-1.7-0.9-4.8-0.5-3.9-1.2-2.6-3.2-0.2-3 0-2.8-0.4-1.4-2.2-0.3-3.2 2.2-4.6 4-5.2 1-6.9 1.3-1.7 0.4-0.5 4.5-0.2 4.2-1.5 3.5-5.4 3.4-6.8 0.3-4.9 0-3.3-0.3-5.6 0-2.6 1.7-1.3 3.6 0 4 0.2 2.3 0.3 2.4 2.9 3.1 2.9 3.5 0 1 1 0 2 0.5 5.6 1.3 2.2 4.2 0 3.8 0.4 5.8 3.1 4 5.2 5.9 4.5 3.6 3.5 2.7 2.1 2.9 0 3.1-0.2 3.5-1.7 4.5-1.1 3.2-1.5 0.7-1.5-0.2-3.3 0.5-4.1 2.7-1.3 1-0.1z" id="MK701" name="Kratovo">
  </path>
  <path d="M466.9 194.1l1.1 2.9 4.2 2.5 4.3 3.7 4.1 3.5 2.6 0 2.2 0 0.9 1.8 0 4.2-0.6 2.7-0.4 3 0 2 0.5 0.5-0.9 0.3-1.8 4.3-1.9 4.2-1.2 2.3-0.5 2.1 0 1.8 2.2 2 0.7 4.2-1.1 2.3-2.5 0.3-3.7 0.3-2.9 0.2-3.1-1.5-2.9-2.6-3.2 0-2.3 3.3-4.2 2.1-3.9 2.6-2.7 0.8-0.9 1.5-0.2-0.5-0.2-4-0.1-3.8-1.5-3-1.8-3.3-2.4-1.8-2.8-1.9-2.9-2.2-2.4-0.7-3.4-2.2-0.8-1.5-0.2-1.7 2-3.1 1.5-2.5 0.8 0.8 1.7-0.2 1.7-2.1 2.2-1.3 3.9-2.1 3.5-1 3.2-0.3 2.3-2.5 4.2-5.4 3-4.3 4.6-4.9 2-1.8z" id="MK807" name="Ilinden">
  </path>
  <path d="M649 280l0.7-0.7 4.2-2.2 2.2 0.6 1.1 2 0 2.2 1.2 3.8 3.7 1.6 4.2-0.2 5.1 0 3.4-0.4 1.5-1.7 3.6 4.3 7.7 7.3 9.3 6.8 7.2 1.2 6.7 1.2 4.1-0.6 4.1 0.2 4.3 4.4 3.4 3.4 4.5 0.6 3 0 1.1-1.7 3.9 0.4 7 0.8 7.3 0.2 1.6 0 0 5.6-0.2 3.5-2.3 0.7-4.2 3-3.3 2.9 0 6.3-0.7 4.8-1.5 3.8-2.6 2.7-1.4 3-1.8-2.2-5-0.2-5.2 1.8-7.6 0.6-9.4 2-7.5 0-4-5.4-5.2-5.4-7.2-6.2-3.1-0.4-3.9-0.8-4.5-5.2-6.4-5.8-5.1-3.2-5.2-0.8-7-0.2-4-0.8-3-4.6-2.4-7-1.1-8.2 0-6.7 3-6.2 5.7-4.9z" id="MK205" name="Karbinci">
  </path>
  <path d="M689 430l-2.7 0.6-6.7 0.2-6.3-1.8-5.3-3.8-3.7-2.4-3.9-1.7-2.7-1.8-0.2-6.8-1-3.1-5.7-1.9-4.6-0.2-5-0.4-2.9 0.8-2.2-1.8-1.5-4.4-0.5-5.3-1.3-5.4-1.3-3.3-1.3-2.2-1.8-1.7-2.4 0.4-1.8 3.3-1.1 3.1-1.2 1.5-1.7 0.8-1.8 0-2.9-3.3-2.6-4.6-1.3-1.8-3.5-1.4-3.4-0.2-3.1-2.7-1-0.8-1.6-1.3-5.1-2.9-3.7-0.4-6.1 0.5-1.1-0.8-0.3-0.3-0.2-2.6 0-2.7-1.6-1.3-2.7-2.2-2.8-2.5-1-1.9 0.6-3.4 0.7-2.7 1.5-1.9 2-2.2 1.4-3.3 2.2-1.1 1.9 0 1.9 1.1 2.6 2.6 1.2 1.9 2 1.6 1.3-0.4 0.8-1.8 0.5-2.3 1.5-0.4 1.1 0 2.5-0.2 0.6-1.2 0-1.9-1.3-1.4 0-1.5 1.3-0.4 1-0.4 0.6 0.4 3.2 2.4 2 3 2.4 1.1 2 0 1.2-1.4-0.8-3.5-1.8-0.8-1.2-1.3 0.4-1.6 0.8-1.6 1.8-0.6 0.2-3.2-1-3.5-1.8-2.4-1.6-3.3 0.2-1.9 1.2-1.3 1.6-0.6 2.8-0.8 2.1-0.5 2.2-3.8 2.8-3.7 2.8-3.8 2.6-4.6 2.1-1.3 2.2-1.4 0.4-3-0.6-2.7-1.6-2.4-1-2.7-1.4-1.9-0.4-3.5 0.6-1.9 2.2-0.8 1.8-1.3 1-1.9 0-1.9 1.9-0.5 2.5 0 2.8 0.3 2.3 1.2 2 0.6 1.2 0 1.1-0.6 0.9-0.3 1.4 0.9 0.9 1.6 0.3 0.6-5.7 4.9-3 6.2 0 6.7 1.1 8.2 2.4 7 3 4.6 4 0.8 7 0.2 5.2 0.8 5.1 3.2 6.4 5.8 4.5 5.2 3.9 0.8 3.1 0.4 7.2 6.2 5.2 5.4 4 5.4 7.5 0 9.4-2 7.6-0.6 5.2-1.8 5 0.2 1.8 2.2-0.7 1.5-2 3.4-3.2 4.8-2.7 5.4-1 2.7-1.7 3.4-2.7 0.4-3.8-0.2-3.9-1.4-3.2-1.1-1.9-1.6-2.8-1.8-2.2 0.5-2.6 2.7-3.3 3.4-1.2 2.7 1.3 3.6 2.2 5.8 1.4 1.8 0.6 3.9 0 4.9 0 3.4 1.7 3.4 3.1 2 1.1 0.5-1.5 2.9-4.1 3.8-4.2 5-4.2 4.5-3.2 2.7-3.4 2.7-1.9 1.8-0.3 2.2 0.4 0.5z" id="MK211" name="Štip">
  </path>
  <path d="M719.6 168.1l0-1.5 1-1.2 2.2-0.2 5.4-0.2 4.3-0.4 2.3 0 2.6 0 1.5 0 1.8 0.3 3.8 0.7 0 1.3 1.5 4.8 2.4 1.3 1.7-1.6 1.4-2.7 2.1-1.1 2.1 1.4 2.3 3.4 0.3 5.2 0 9.7 1.6 4.1 3.5 2 5.2 2.8 1.4 1.6 1 7.2-0.2 3.6 1.4 2.3 2.5 3.2 0.8 2.7 2.4 2.9 0.2 4.4-0.2 4.9 0.7 3.7 1.7 2.9 0 3.7-1.7 1.1-3.7 2.5-2.2 0-2-0.3-1.7-1.3-1.6-2.5-2.2-1.8-1.7-0.9-3 0-2.7 0.2-1.1 1.8-1 6.3-0.6 6.6-1.7 4.8-0.2 4 0.5 11.6-2.5 2.9-0.1 1-1.2 0-3.1 1-2.8 3.7-1.3 2.6-1.6 0.8-1.9-0.6-0.5-1.8-1.4-1.2-2 0-1.6 1.2-1.3 2-3.4 2.9-3.3 0.2-2.6 0-0.4 0-1.2-0.7-1.9-2.6-1.6 0-2.1-1-1.1-4.9-0.6-2.2-0.8-1.7-1.4-2.8-0.3-7.9 0-3.3 0.9-2.2 1.1-0.8 0.3-1.3-0.3-2.2-0.8-1.2-2.5 0-4 0.2-7.3 0.2-5.4-3.7-4.5-5.7-1.5-4.2-0.1-0.3 0-0.5 1.7-2.1 3.5-2.6 4.4-4.5 5.1-4.1 1.6-3.8 2.2-3.7 2.7-1.8 2.7-1.6 1.6-0.4 1.2-5.5 1.3-4.5 0.5-2 2.3-8.1 1-4.7 2.5-4.4 0.4-3.9-0.6-3.6-1.6-3.7-0.5-3.3 0-0.9z" id="MK206" name="Kočani">
  </path>
  <path d="M735.3 312.1l-0.1 0-1.5-3.4-2.2-3.9-3.9-5.1-3.5-3.3-0.9-4-0.1-6.3 2.6 0 3.3-0.2 3.4-2.9 1.3-2 1.6-1.2 2 0 1.4 1.2 0.5 1.8 1.9 0.6 1.6-0.8 1.3-2.6 2.8-3.7 3.1-1 1.2 0-0.1 0.6 1.2 2.3 1.9 2 0.6 2.7 0.9 6.1 0.3 5.7 0 4 0 3.9-0.5 3.8-0.3 4.8 0 2.3-1.6 0-7.3-0.2-7-0.8-3.9-0.4z" id="MK204" name="Zrnovci">
  </path>
  <path d="M516.5 402.4l-3.5-0.4-8.1-2.1-3.1-3.5-0.6-3.9-0.1-5-0.2-3.1-1.2-1.9-1.8 0.4-1 1.3-2.2 2-1.1 0.9-1.8 0.8-1.9-0.2-1.9-2.9-0.6-2.7 0.1-2.7-0.9-4-2.9-4.5-1.3-7.9-2.1-5.2-3.8-1.9-3.9-0.2-4.3-0.9-2.9-1.2-2.7-1.5-2-0.4-1.9 0-1.2 1.3-1.5 1-2.1 0-1.8-1.4-2.5-5.4-3.1-6.3-2.2-3.1 0.3-1.1 0.1-0.4 6.4-0.6 5.6-2.1 2.2-1.4 1.8-3.6 3.2-5.2 2.1-3.1 0-5.8 0-2.7-1.7-1.1-1.4-2 0-2.3 0-3.8 0-3.1 1.7-0.6 0.1 1.2 3.6 1.6 3.8 0.6 2.7 0.2 1.7-1.6 1.4-0.7 0.9 0.9 0.2 3.5-0.8 1.7 0.3 1 2 0 1.3-2.5 2-1.8 1.5-1.9 0.2-1.7 2.5 0 2.1 2.7 1.7 2.9 4.2 1.5 1.9-0.6 0.9-1.9 1.1-4.8 1.2-5 1.7-4.8 0.8-4.5 0.5-4 0-4.6-0.5-3.5-0.4-4 0.3-1.6 2-1.1 4.5 0.2 4.8-1.8 5.2-4 3-2.3 4-2.9-0.1 0.9 0 5.2 2.3 9.2 1.6 5.6 4.6 5.9 4.6 6 3.2 3.7 0.1 2.3-1.3 2-1.8 1.9-3.3 3.9-2.2 1.9-2.1 2.3-1.1 1.9 0.6 1.9 1.2 1.6 2.3 3.1 1.8 1.9 1.8 2.7 0 3.4-0.7 2.4-2.2 4.6-1.6 3.3-0.4 1.3-0.5 2.7 1.1 1.6 1.8 0 2.2 0 2.8 1.1 1.6 2.7 2.6 5.4 1.7 2.5 0 2.3 0 3.9-1.4 6.9-3.1 3.9-5.9 6-2.3 4.8-1.7 4.6-1.9 4.5-3.4 5.4-3.9 0.6-2.9 0-2.5 0.3-1.1 1.6-0.5 2.9-0.6 4.5z" id="MK101" name="Veles">
  </path>
  <path d="M713.7 486.3l-1.1 2.7-0.6 3.2-0.2 4.7 0.6 3.7 1.9 5.7 1.7 2-0.3 1.2-0.1 2.6 0.3 2.3 1.8 2.2 1 1.6 1.5 4.8 0.3 3.6-0.2 4-0.4 2-1.8 0.6-3 0-4.6-0.4-4.2 0.2-3 0.2-1.8 1.6-2.6 3.2-2 2.7-0.2 1.7-2.2 0.8-10 7-8.9 5-5.8 0.9-6.4-0.9-5.8-3.7-5.1-3.5-1.8-5-1.6-2.7-2.2-0.3-2-1.1-1.4-1.6-1.2-1.3-1.4-0.5-1.8-1.6-3.5-3.3-5.9-5.8-3.5-2.9 0.6 0 2.1-0.2 4.8 0.5 5.4 0 3.4-0.6 1.9-0.6 1-1.8 0.6-3 0.8-2.4 0.5-2.7 0-2-1-2.6-2.3-2.9-2.2-3.1-0.9-2.1 0.4-1.5 1.2-1.7 1.9-0.2 2.1-1.7 1.7-1.4 1.3-2.9 1.5-3.4 1.3-5.7 1.8-6.3 1.6-2.8 3.6-2.7 3.8-4.7 2.5-1.7 3.2 0 2.1 0.7 2 2.1 1.7 1.5 3.6 2.1 3.1 1.5 2.4 1.4 3.2 1 1.8 0 1.3-1.2 1.3-2 0.9-2.6 1-2.1 1.6-1.4 2.7-1.3 3.8-3.6 1.8-2.1 1 2.4 3.2 0.4 4.2 2.3 2.9 1.6 1.7 3.6-0.7 3.3-2 2.1-1 0.9-0.7 2.9 0.2 3.8 0.8 5.6 1 1.7z" id="MK103" name="Demir Kapija">
  </path>
  <path d="M811.5 221.5l0.3 3.1 0 7.5 0.5 6.3 0.1 5.2 0 4.1 1.5 1.4 3.9 0.9 7.1 2.2 6.7 3.7 7 3.6 4.3 1.1 3.2 0.7 2.2 0 1.2 0.2 0 2.5-1.5 1.4-1.4 3.1-3 5.5-1 6.8-1.5 7.6-2.2 4.3-2.5 3.4-0.7 3.4-0.2 4.8 0.3 0.7-0.8 0.2-0.7 3.8 1.2 2.5 0.5 5-0.5 7.9-1.3 5.6-2.4 5.7-3.4 4-4.9 0-3.8 0.7-2.9 2.5 0 0.1-0.3 0-2.7-0.5-2.9 0-4.4-1.8-3.8-3.1-2.2-2.5-2.6-2.3-2.8-1.3-3.1-1.4-2-1.3-1.1-2.5-0.9-2.3-1.2-1.1-1.2 0-1.3 0.2-1 2.1-0.7 2.4-2 2.1-4.9 1.1-3.9 0-4 0.2-3-1.3-1.5-1.4-2.4-2.9-2.6-2.1-3.1-0.8-0.3 0.1 0.2-3.5 0-5.6 0-2.3 0.3-4.8 0.5-3.8 0-3.9 0-4-0.3-5.7-0.9-6.1-0.6-2.7-1.9-2-1.2-2.3 0.1-0.6 0.1-1 2.5-2.9-0.5-11.6 0.2-4 1.7-4.8 0.6-6.6 1-6.3 1.1-1.8 2.7-0.2 3 0 1.7 0.9 2.2 1.8 1.6 2.5 1.7 1.3 2 0.3 2.2 0 3.7-2.5 1.7-1.1 0 0.2 1.7 0.9 3.2 1.3 2.6 0 4-2.7 2.5-5.2 2.2-4.8 0.7-4.3 0.8-2.9 2.2-2.1 2.7-0.4 5.4 0.7 3.2 1.5z" id="MK202" name="Vinica">
  </path>
  <path d="M900.9 442.6l0.3 2.2 0.1 5.7-1 3.8-2.2 1.8-2 2.7-1.8 3.1-3 3.8-3.9 3.4-1.9 1.4-3 2.2-1.7 2.3 0.2 4 0 4.3 0 5.4-0.2 3.1-0.7 2.5-1.3 1.3-1.4 0.9-1.7 1.4-0.3 1.1 0 0.2-1.5 0-2.9 0.2-1.6 0.9-2.1 1.2-1.6 0.4-3.1-0.4-2.8-1.6-2.2-2-1.1-1.6-0.5-3.8-0.6-2.3-1.4-1.8-2.2 0.3-3 0.2-1.2 1.3-1 0.7-1.9 0-1.5-1.6-2-0.6-1.3-0.5 0-2.7 1.1-2.5 1.6-3.3 0.1-2.5-0.6-2.9-1.2-3.6-0.8-2.7-2.8-3.2-1.6-1.3-0.2-0.2 0.3-1.4 2.9-1.8 2.2-0.4 2-0.5 2-0.9 2.4-2.9 3.2-2.5 2.3-4.5 1.4-2.7 0.7-2.4 0.5-6.6 0.8-4.5 0-4.7-0.7-6.5-0.7-3.2 3.7 0.5 2.5 3.6 1 4.2 3 3.7 5.3 3.6 4.2 0.9 6.2 0.9 5.2 0.2 6.9 0.4 3.1 2.3 3.3 4.5 1.7 0z" id="MK402" name="Bosilovo">
  </path>
  <path d="M816.8 343l-0.1 3.5 0.2 4.9 1.3 6.2 2.6 2.3 2.7 1.4 1.7 1.9-0.2 2.6-1.9 2.5-3 5.6-2.1 2.9-0.2 3.1 0.6 3.9 1.4 3.3-1 1.2-3.9 0.7-4.3 0-2.4 0.4-1.3 1.4-2.7 5.2-1.7 2.9-1 3.2 0.1 2.7 2.1 3.3 2.8 4.6 2.5 1.5 0.7 3.2 0.2 3.4 1.3 2.7 0.5 3.1 0 3.6-0.3 4.5-2 3.2-1.5 2-1.4 1.1-2-0.2-3.5-3.6-3.2-3.2-3.7-3.6-5.6-3.3-2 0-1.5 0.8-1.9 4.5-3.4 2.5-2.5 0.7-2 0-1.4 1.1 0 1.8 0.9 1.2 0.8 2 0.9 2 0 2.5-1.1 1-2.3-1-6.6-1.8-4.5 0-3.4-0.9-1.8-1.6 0.1-2.5 1.9-0.9 1.7-1.3 0.8-2.3 0-2.7-1.5-2-3.3-3.8-3.2-5.4-4.8-5.4-3.1-2.5-5-0.4-7-0.5-4.2-0.2-2.7-0.5-3-2.5-2.8-2.7-3.3-0.9-2.3 0-3.6-1.5-1.1-0.5-3.1-2-1.7-3.4 0-3.4 0-4.9-0.6-3.9-1.4-1.8-2.2-5.8-1.3-3.6 1.2-2.7 3.3-3.4 2.6-2.7 2.2-0.5 2.8 1.8 1.9 1.6 3.2 1.1 3.9 1.4 3.8 0.2 2.7-0.4 1.7-3.4 1-2.7 2.7-5.4 3.2-4.8 2-3.4 0.7-1.5 1.4-3 2.6-2.7 1.5-3.8 0.7-4.8 0-6.3 3.3-2.9 4.2-3 2.3-0.7 0.3-0.1 3.1 0.8 2.6 2.1 2.4 2.9 1.5 1.4 3 1.3 4-0.2 3.9 0 4.9-1.1 2-2.1 0.7-2.4 1-2.1 1.3-0.2 1.2 0 1.2 1.1 0.9 2.3 1.1 2.5 2 1.3 3.1 1.4 2.8 1.3 2.6 2.3 2.2 2.5 3.8 3.1 4.4 1.8 2.9 0 2.7 0.5 0.3 0z" id="MK409" name="Radoviš">
  </path>
  <path d="M835.7 463.5l-2.2 1.1-4.3 3.6-3.6 0.7-2.3 0.9-3.2 1.3-6.6-0.2-3.7 0-2.2-3.1-3.5-4.3-1.5-2-4.3-2.1-2.8-2.2-2.4 0-4-2.3-3.5 0.5-1.2 1.8-1 2.7-2.1 2.7-2.3 2.9-1.4 1.4-0.5-0.5-0.5-0.4-0.5-4.3-1.2-3.8-0.2-3.9 0-3.5 0.2-3 0.4-0.3 1.1-1 0-2.5-0.9-2-0.8-2-0.9-1.2 0-1.8 1.4-1.1 2 0 2.5-0.7 3.4-2.5 1.9-4.5 1.5-0.8 2 0 5.6 3.3 3.7 3.6 3.2 3.2 3.5 3.6 2 0.2 1.4-1.1 1.5-2 2-3.2 0.3-4.5 0-3.6-0.5-3.1-1.3-2.7-0.2-3.4-0.7-3.2-2.5-1.5-2.8-4.6-2.1-3.3-0.1-2.7 1-3.2 1.7-2.9 2.7-5.2 1.3-1.4 2.4-0.4 4.3 0 3.9-0.7 1-1.2 0.3 0.9-0.4 4 1.1 3.4 1 0 1.7-0.9 1.9-4.5 1.7-1.4 2.4 0.6 5.1 5.4 4.2 1.2 1.7 1.5 1.1 3 0 3.6-0.1 3.6-0.9 2.2-2.2 0.7-2.2 1.1-0.1 1.8 0.3 2.3 2.4 0 5.4-0.3 9.2 2.3 1.4 0.2 0.7 3.2 0.7 6.5 0 4.7-0.8 4.5-0.5 6.6-0.7 2.4-1.4 2.7-2.3 4.5-3.2 2.5-2.4 2.9-2 0.9-2 0.5-2.2 0.4-2.9 1.8-0.3 1.4 0.2 0.2z" id="MK404" name="Vasilevo">
  </path>
  <path d="M754.8 476.2l-1.8-0.6-4.8-0.6-6.4 0.2-9.1 2.2-6.5 1.6-8.6 3.4-1.4 2.4-0.4 2.3-1.6 0-0.5-0.8-1-1.7-0.8-5.6-0.2-3.8 0.7-2.9 1-0.9 2-2.1 0.7-3.3-1.7-3.6-2.9-1.6-4.2-2.3-3.2-0.4-1-2.4-0.5-1.2-0.2-4.7-1.7-3.8-2.5-3.9-3-4.9-3.9-4.3-2.3-2.9-0.4-0.5 0.3-2.2 1.9-1.8 3.4-2.7 3.2-2.7 4.2-4.5 4.2-5 4.1-3.8 1.5-2.9 3.6 1.5 2.3 0 3.3 0.9 2.8 2.7 3 2.5 2.7 0.5 4.2 0.2 7 0.5 5 0.4 3.1 2.5 4.8 5.4 3.2 5.4 3.3 3.8 1.5 2 0 2.7-0.8 2.3-1.7 1.3-1.9 0.9-0.1 2.5 1.8 1.6 3.4 0.9 4.5 0 6.6 1.8 2.3 1-0.4 0.3-0.2 3 0 3.5 0.2 3.9 1.2 3.8 0.5 4.3 0.5 0.4-0.4 3.2-1.7 1.5-4.2-0.6-1.8-1.4-2.6 0-4.2 1.4-5 2.4-2.4 2.5 0 0.8z" id="MK407" name="Konče">
  </path>
  <path d="M217 160.7l4.5 2.8 3.4 2 3.1 3.5 2.8 5.7 1.9 5.1 1.2 3.5 3 1 2.2 0 3.1 1.3 2.6 3.5 1.4 2.9-1 3.5 0 2.8 0 3.5 1 2 3.1 1.9 2.8 0.6 0.8 0.3 0.7 3-2.2 0.5-1.9 2.6-1.9 2.9 0 1.2 1.4 1.6 3.1 1 0.7 2.2 1.7 2.6 3.8 1.2 1.2 1-0.3 3.5-1.4 0.6-2.6 0.4-3.1 1.2-2.6 3.5 0 0.1-3.6-0.7-2.8-0.3-4.5-3.2-2.8-2.2-2.2-0.4-2.1 1.3-1.9 3.8-0.7 2-1.4-0.2-1.5-0.2-4.7-5.7-3.8-4.5-3.3-1.9-10.9-2.2-9.5-2.6-5.4 0.4-4.1 2.5-3.5 3.5-4.3 3.2-6.1 2.2-5.5 2.9-4 4.1-3.5 1.7-0.5 0.4-2.8 0.8-3.2-13.3 0.5-10.8 4.3-23.6 3.6-10.2 6.9-8.5 9.1-5.2 33.2-11.3 9.5-3.3-2.9 5.6 1.9 0.9z" id="MK609" name="Tetovo">
  </path>
 </g>
 <g id="points">
  <circle class="40.9254410823674|20.57242859470441" cx="90.9" cy="721.3" id="0">
  </circle>
  <circle class="41.53381736054885|21.855140996727467" cx="545.5" cy="434.6" id="1">
  </circle>
  <circle class="42.29428770827567|22.881310918345914" cx="909.1" cy="72.5" id="2">
  </circle>
 </g>
 <g id="label_points">
  <circle class="Struga" cx="117.1" cy="534.8" id="MK312">
  </circle>
  <circle class="Centar župa" cx="94.4" cy="470.2" id="MK313">
  </circle>
  <circle class="Debar" cx="79.5" cy="430.2" id="MK303">
  </circle>
  <circle class="Mavrovo and Rostusa" cx="128.8" cy="381.4" id="MK607">
  </circle>
  <circle class="Gostivar" cx="227.3" cy="338.8" id="MK604">
  </circle>
  <circle class="Vevčani" cx="85.3" cy="576" id="MK301">
  </circle>
  <circle class="Ohrid" cx="171.8" cy="648.4" id="MK310">
  </circle>
  <circle class="Debarca" cx="181.4" cy="528.4" id="MK304">
  </circle>
  <circle class="Resen" cx="238.9" cy="689.8" id="MK509">
  </circle>
  <circle class="Novo Selo" cx="905" cy="491.6" id="MK408">
  </circle>
  <circle class="Dojran" cx="842" cy="572.6" id="MK406">
  </circle>
  <circle class="Valandovo" cx="760" cy="511.2" id="MK403">
  </circle>
  <circle class="Strumitsa" cx="816.4" cy="501.7" id="MK410">
  </circle>
  <circle class="Bogdanci" cx="803.6" cy="602.7" id="MK401">
  </circle>
  <circle class="Gevgelija" cx="734.9" cy="579" id="MK405">
  </circle>
  <circle class="Kavadartsi" cx="602.7" cy="564.7" id="MK104">
  </circle>
  <circle class="Novaci" cx="470.6" cy="674.2" id="MK507">
  </circle>
  <circle class="Prilep" cx="478.7" cy="552.6" id="MK508">
  </circle>
  <circle class="Bitola" cx="336.7" cy="663.1" id="MK501">
  </circle>
  <circle class="Lipkovo" cx="448.2" cy="134.7" id="MK704">
  </circle>
  <circle class="Čučer Sandevo" cx="382.8" cy="141.1" id="MK816">
  </circle>
  <circle class="Gjorče Petrov" cx="357.3" cy="191.5" id="MK805">
  </circle>
  <circle class="Saraj" cx="332.1" cy="220.9" id="MK811">
  </circle>
  <circle class="Jegunovce" cx="292.4" cy="149.6" id="MK606">
  </circle>
  <circle class="Tearce" cx="257.7" cy="170.4" id="MK608">
  </circle>
  <circle class="Bogovinje" cx="199.4" cy="240.7" id="MK601">
  </circle>
  <circle class="Vrapcište" cx="186.2" cy="281.1" id="MK603">
  </circle>
  <circle class="Kriva Palanka" cx="705.9" cy="110.5" id="MK702">
  </circle>
  <circle class="Rankovce" cx="638.4" cy="116" id="MK705">
  </circle>
  <circle class="Staro Nagoričane" cx="561.3" cy="111.4" id="MK706">
  </circle>
  <circle class="Kumanovo" cx="506.4" cy="189.4" id="MK703">
  </circle>
  <circle class="Delčevo" cx="870.9" cy="238" id="MK203">
  </circle>
  <circle class="Makedonska Kamenica" cx="789.9" cy="188.6" id="MK207">
  </circle>
  <circle class="Berovo" cx="883.4" cy="386.8" id="MK201">
  </circle>
  <circle class="Pehčevo" cx="908.2" cy="318" id="MK208">
  </circle>
  <circle class="Želino" cx="287.8" cy="248.4" id="MK605">
  </circle>
  <circle class="Brvenica" cx="248.8" cy="268.4" id="MK602">
  </circle>
  <circle class="Brod" cx="322.6" cy="384.6" id="MK308">
  </circle>
  <circle class="Kičevo" cx="218.4" cy="438.1" id="MK307">
  </circle>
  <circle class="Sopište" cx="346.5" cy="290.1" id="MK812">
  </circle>
  <circle class="Karpoš" cx="379.4" cy="222.7" id="MK808">
  </circle>
  <circle class="Šuto Orizari" cx="386.2" cy="195.9" id="MK817">
  </circle>
  <circle class="Butel" cx="411" cy="162.1" id="MK803">
  </circle>
  <circle class="Čair" cx="397.1" cy="215.8" id="MK815">
  </circle>
  <circle class="Centar" cx="392" cy="225.2" id="MK814">
  </circle>
  <circle class="Dolneni" cx="385.2" cy="475" id="MK503">
  </circle>
  <circle class="Krivogaštani" cx="373.2" cy="542.8" id="MK504">
  </circle>
  <circle class="Mogila" cx="389.7" cy="618.6" id="MK506">
  </circle>
  <circle class="Čaška" cx="449.9" cy="408.5" id="MK109">
  </circle>
  <circle class="Rosoman" cx="559.9" cy="456.8" id="MK107">
  </circle>
  <circle class="Negotino" cx="638.5" cy="444.3" id="MK106">
  </circle>
  <circle class="Gazi Baba" cx="421.5" cy="202.9" id="MK804">
  </circle>
  <circle class="Kruševo" cx="334.9" cy="517.2" id="MK505">
  </circle>
  <circle class="Demir Hisar" cx="290.4" cy="562.9" id="MK502">
  </circle>
  <circle class="Aerodrom" cx="413.8" cy="234.1" id="MK801">
  </circle>
  <circle class="Studeničani" cx="387.4" cy="309.8" id="MK813">
  </circle>
  <circle class="Kisela Voda" cx="421" cy="251.4" id="MK809">
  </circle>
  <circle class="Probištip" cx="656.2" cy="234.4" id="MK209">
  </circle>
  <circle class="Češinovo-Obleševo" cx="694.5" cy="275.1" id="MK210">
  </circle>
  <circle class="Aračinovo" cx="446.2" cy="204.2" id="MK802">
  </circle>
  <circle class="Zelenikovo" cx="442" cy="304.7" id="MK806">
  </circle>
  <circle class="Plasnica" cx="285.3" cy="477.8" id="MK311">
  </circle>
  <circle class="Skopje" cx="485.9" cy="268.2" id="MK810">
  </circle>
  <circle class="Lozovo" cx="565.5" cy="330.5" id="MK105">
  </circle>
  <circle class="Sveti Nikole" cx="585.7" cy="269.8" id="MK108">
  </circle>
  <circle class="Gradsko" cx="555.1" cy="407.3" id="MK102">
  </circle>
  <circle class="Kratovo" cx="611.9" cy="182.4" id="MK701">
  </circle>
  <circle class="Ilinden" cx="464.9" cy="221.9" id="MK807">
  </circle>
  <circle class="Karbinci" cx="709.6" cy="328.7" id="MK205">
  </circle>
  <circle class="Štip" cx="656.1" cy="363.9" id="MK211">
  </circle>
  <circle class="Kočani" cx="735.4" cy="225.1" id="MK206">
  </circle>
  <circle class="Zrnovci" cx="742" cy="297.9" id="MK204">
  </circle>
  <circle class="Veles" cx="506.6" cy="342.8" id="MK101">
  </circle>
  <circle class="Demir Kapija" cx="678.3" cy="510.9" id="MK103">
  </circle>
  <circle class="Vinica" cx="797.9" cy="285.1" id="MK202">
  </circle>
  <circle class="Bosilovo" cx="867.7" cy="460.5" id="MK402">
  </circle>
  <circle class="Radoviš" cx="769.3" cy="380.5" id="MK409">
  </circle>
  <circle class="Vasilevo" cx="829.8" cy="438.6" id="MK404">
  </circle>
  <circle class="Konče" cx="732.8" cy="444.8" id="MK407">
  </circle>
  <circle class="Tetovo" cx="207.6" cy="190" id="MK609">
  </circle>
 </g>
</svg>